# Blender 3.5.0
# www.blender.org
mtllib Catapult.mtl
o 立方体
v 0.891437 2.000000 0.170070
v 0.891437 2.000000 -0.170070
v 0.940896 2.000000 0.170070
v 0.950697 1.983985 0.186194
v 0.940896 2.000000 -0.170070
v 0.950697 1.983985 -0.186194
v 0.972478 2.000000 0.016124
v 0.972478 2.000000 -0.016124
v 0.959946 1.983975 0.000000
v 1.121183 2.000000 -0.016124
v 1.121183 2.000000 0.016124
v 0.948932 1.983975 -0.093097
v 0.965279 2.000000 -0.076973
v 0.953705 2.000000 -0.109221
v 1.049923 2.000000 -0.076973
v 1.059722 1.983994 -0.093097
v 1.012157 2.000000 -0.109221
v 1.059722 1.983994 0.093097
v 1.049923 2.000000 0.076973
v 1.012157 2.000000 0.109221
v 0.965279 2.000000 0.076973
v 0.948932 1.983975 0.093097
v 0.953705 2.000000 0.109221
v 0.875333 1.983977 0.165018
v 0.884055 1.983980 0.186194
v 0.879541 1.994954 0.175148
v 0.884055 1.983980 -0.186194
v 0.875333 1.983977 -0.165018
v 0.879541 1.994954 -0.175148
v 1.423420 0.000000 0.173428
v 1.425077 0.012679 0.186194
v 1.423420 0.000000 -0.173428
v 1.425077 0.012679 -0.186194
v 1.196962 0.000000 0.000000
v 1.180961 0.012690 0.000000
v 1.626524 0.000000 0.000000
v 1.534106 0.012672 -0.093097
v 1.517497 0.000000 -0.093097
v 1.169947 0.012690 -0.093097
v 1.186017 0.000000 -0.093097
v 1.186017 0.000000 0.093097
v 1.169947 0.012690 0.093097
v 1.534106 0.012672 0.093097
v 1.517497 0.000000 0.093097
v 1.115042 0.000000 0.173428
v 1.105071 0.012686 0.186194
v 1.111859 0.000000 0.165701
v 1.096349 0.012689 0.165018
v 1.111859 0.000000 -0.165701
v 1.096349 0.012689 -0.165018
v 1.115042 0.000000 -0.173428
v 1.105071 0.012686 -0.186194
v 1.151832 1.983997 0.014444
v 1.151832 1.983997 -0.014444
v 1.148996 1.990642 -0.006696
v 1.148996 1.990642 0.006696
v 1.626217 0.012670 -0.014444
v 1.626217 0.012670 0.014444
v 1.626564 0.000030 0.000000
v -0.891437 2.000000 0.170070
v -0.891437 2.000000 -0.170070
v -0.940896 2.000000 0.170070
v -0.950697 1.983985 0.186194
v -0.940896 2.000000 -0.170070
v -0.950697 1.983985 -0.186194
v -0.972478 2.000000 0.016124
v -0.972478 2.000000 -0.016124
v -0.959946 1.983975 0.000000
v -1.121183 2.000000 -0.016124
v -1.121183 2.000000 0.016124
v -0.948932 1.983975 -0.093097
v -0.965279 2.000000 -0.076973
v -0.953705 2.000000 -0.109221
v -1.049923 2.000000 -0.076973
v -1.059722 1.983994 -0.093097
v -1.012157 2.000000 -0.109221
v -1.059722 1.983994 0.093097
v -1.049923 2.000000 0.076973
v -1.012157 2.000000 0.109221
v -0.965279 2.000000 0.076973
v -0.948932 1.983975 0.093097
v -0.953705 2.000000 0.109221
v -0.875333 1.983977 0.165018
v -0.884055 1.983980 0.186194
v -0.879541 1.994954 0.175148
v -0.884055 1.983980 -0.186194
v -0.875333 1.983977 -0.165018
v -0.879541 1.994954 -0.175148
v -1.423420 0.000000 0.173428
v -1.425077 0.012679 0.186194
v -1.423420 0.000000 -0.173428
v -1.425077 0.012679 -0.186194
v -1.196962 0.000000 0.000000
v -1.180961 0.012690 0.000000
v -1.626524 0.000000 0.000000
v -1.534106 0.012672 -0.093097
v -1.517497 0.000000 -0.093097
v -1.169947 0.012690 -0.093097
v -1.186017 0.000000 -0.093097
v -1.186017 0.000000 0.093097
v -1.169947 0.012690 0.093097
v -1.534106 0.012672 0.093097
v -1.517497 0.000000 0.093097
v -1.115042 0.000000 0.173428
v -1.105071 0.012686 0.186194
v -1.111859 0.000000 0.165701
v -1.096349 0.012689 0.165018
v -1.111859 0.000000 -0.165701
v -1.096349 0.012689 -0.165018
v -1.115042 0.000000 -0.173428
v -1.105071 0.012686 -0.186194
v -1.151832 1.983997 0.014444
v -1.151832 1.983997 -0.014444
v -1.148996 1.990642 -0.006696
v -1.148996 1.990642 0.006696
v -1.626217 0.012670 -0.014444
v -1.626217 0.012670 0.014444
v -1.626564 0.000030 0.000000
v -0.972478 2.000000 0.000000
v -1.121183 2.000000 0.000000
v -1.151832 1.983997 -0.000000
v -1.148996 1.990642 0.000000
v -1.626217 0.012670 0.000000
vn -0.5123 0.6802 -0.5243
vn -0.0000 -0.0000 1.0000
vn -0.0000 -0.0000 -1.0000
vn -0.0000 1.0000 -0.0000
vn -0.0000 -1.0000 -0.0000
vn 0.6416 0.1544 -0.7514
vn 0.3189 0.9478 -0.0000
vn -0.6968 -0.0781 -0.7130
vn -0.9870 -0.1107 0.1168
vn -0.6968 -0.0781 0.7130
vn -0.9870 -0.1107 -0.1168
vn -0.7877 0.6160 -0.0000
vn 0.4232 0.7585 0.4956
vn -0.7998 0.5271 0.2871
vn 0.4232 0.7584 -0.4956
vn 0.4232 0.7584 0.4957
vn -0.7998 0.5271 -0.2871
vn -0.5123 0.6802 0.5243
vn -0.0000 0.7094 -0.7048
vn -0.7400 0.6668 -0.0876
vn 0.6416 0.1544 0.7514
vn -0.7400 0.6668 0.0876
vn 0.4233 0.7583 -0.4958
vn 0.4945 -0.6482 -0.5791
vn -0.0001 0.7094 0.7048
vn -0.9246 0.0030 0.3808
vn -0.9246 0.0030 -0.3808
vn -0.9197 -0.1031 -0.3788
vn -0.9197 -0.1031 0.3788
vn 0.4945 -0.6481 -0.5792
vn -0.6181 -0.7827 0.0731
vn 0.4945 -0.6482 0.5791
vn -0.6198 -0.7814 -0.0729
vn 0.4947 -0.6479 0.5793
vn -0.6190 -0.7429 0.2549
vn -0.6190 -0.7429 -0.2548
vn -0.5237 -0.6631 -0.5349
vn -0.0000 -0.7095 0.7047
vn -0.5237 -0.6631 0.5349
vn -0.0000 -0.7093 -0.7049
vn 0.9198 0.3925 -0.0000
vn 0.9996 0.0274 -0.0000
vn 0.9722 0.2340 -0.0000
vn 0.4232 0.7585 -0.4956
vn 0.5123 0.6802 -0.5243
vn -0.6416 0.1544 -0.7514
vn -0.3189 0.9478 -0.0000
vn 0.6968 -0.0781 -0.7130
vn 0.9870 -0.1107 0.1168
vn 0.6968 -0.0781 0.7130
vn 0.9870 -0.1107 -0.1168
vn 0.7877 0.6160 -0.0000
vn -0.4232 0.7584 0.4957
vn 0.7998 0.5271 0.2871
vn -0.4232 0.7584 -0.4956
vn 0.7998 0.5271 -0.2871
vn 0.5123 0.6802 0.5243
vn -0.4233 0.7583 0.4958
vn -0.0000 0.7095 -0.7047
vn 0.7400 0.6668 -0.0876
vn -0.6416 0.1544 0.7514
vn 0.7400 0.6668 0.0876
vn -0.4233 0.7583 -0.4958
vn -0.4945 -0.6481 -0.5791
vn 0.0001 0.7094 0.7048
vn 0.9246 0.0030 0.3808
vn 0.9246 0.0030 -0.3808
vn 0.9197 -0.1031 -0.3788
vn 0.9197 -0.1031 0.3788
vn -0.4947 -0.6479 -0.5793
vn 0.6198 -0.7814 0.0729
vn -0.4949 -0.6478 0.5791
vn 0.6198 -0.7814 -0.0729
vn -0.4947 -0.6479 0.5793
vn 0.6190 -0.7429 0.2549
vn 0.6190 -0.7429 -0.2549
vn 0.5237 -0.6631 -0.5349
vn -0.0000 -0.7093 0.7049
vn 0.5214 -0.6660 0.5335
vn -0.9198 0.3925 -0.0000
vn -0.9996 0.0274 -0.0000
vn -0.9722 0.2340 -0.0000
vn -0.4232 0.7585 -0.4956
vn 0.4233 0.7583 0.4958
vn -0.0000 0.7093 -0.7049
vn -0.0001 0.7095 -0.7047
vn 0.4232 0.7584 -0.4957
vn 0.4948 -0.6476 -0.5794
vn 0.4945 -0.6481 -0.5791
vn -0.0000 0.7095 0.7047
vn 0.4947 -0.6479 -0.5793
vn -0.6198 -0.7814 0.0729
vn 0.4945 -0.6481 0.5791
vn 0.4944 -0.6472 0.5803
vn -0.6181 -0.7827 -0.0731
vn 0.4945 -0.6481 0.5792
vn -0.6190 -0.7429 0.2548
vn -0.6190 -0.7429 -0.2549
vn -0.5214 -0.6660 -0.5335
vn -0.5214 -0.6660 0.5335
vn -0.0000 -0.7095 -0.7047
vn -0.4232 0.7585 0.4956
vn 0.0001 0.7094 -0.7048
vn -0.4232 0.7584 -0.4957
vn -0.4948 -0.6476 -0.5794
vn -0.4945 -0.6482 -0.5791
vn -0.4945 -0.6481 -0.5792
vn 0.6181 -0.7827 0.0731
vn -0.4945 -0.6481 0.5791
vn -0.4945 -0.6482 0.5791
vn 0.6181 -0.7827 -0.0731
vn -0.4945 -0.6481 0.5792
vn 0.6190 -0.7429 0.2548
vn 0.6190 -0.7429 -0.2548
vn 0.5214 -0.6660 -0.5335
vn 0.5237 -0.6631 0.5349
vt 0.814785 0.739175
vt 0.890209 0.305582
vt 0.814785 0.510825
vt 0.890209 0.077231
vt 0.686309 0.739175
vt 0.761732 0.305582
vt 0.698422 0.316406
vt 0.700424 0.316406
vt 0.622998 0.750000
vt 0.686309 0.510825
vt 0.761732 0.077231
vt 0.622998 0.500000
vt 0.700424 0.066406
vt 0.698422 0.066406
vt 0.850333 0.635825
vt 0.925757 0.202231
vt 0.933097 0.191406
vt 0.925757 0.180582
vt 0.850333 0.614175
vt 0.948251 0.191406
vt 0.622997 0.125000
vt 0.950424 0.191406
vt 0.656273 0.614175
vt 0.731697 0.180582
vt 0.731697 0.202231
vt 0.656273 0.635825
vt 0.946293 0.128906
vt 0.622997 0.187500
vt 0.950424 0.128906
vt 0.950424 0.129047
vt 0.908708 0.128906
vt 0.917793 0.139731
vt 0.842369 0.573325
vt 0.818560 0.551675
vt 0.893984 0.118082
vt 0.664824 0.573325
vt 0.740248 0.139731
vt 0.622999 0.562500
vt 0.698423 0.128906
vt 0.757923 0.118082
vt 0.682499 0.551675
vt 0.698423 0.253906
vt 0.622999 0.687500
vt 0.740248 0.243082
vt 0.664824 0.676675
vt 0.757923 0.264731
vt 0.682499 0.698325
vt 0.908708 0.253906
vt 0.917793 0.243082
vt 0.842369 0.676675
vt 0.946293 0.253906
vt 0.950424 0.253766
vt 0.950424 0.253906
vt 0.622997 0.062500
vt 0.893984 0.264731
vt 0.818560 0.698325
vt 0.950424 0.301724
vt 0.622997 0.014216
vt 0.890064 0.144341
vt 0.889978 0.142633
vt 0.622997 0.921699
vt 0.868876 0.316406
vt 0.889888 0.138389
vt 0.890064 0.143542
vt 0.909172 0.308801
vt 0.907683 0.308990
vt 0.865175 0.238820
vt 0.622998 0.328301
vt 0.868876 0.066406
vt 0.865261 0.275849
vt 0.865261 0.237112
vt 0.622997 0.235784
vt 0.950424 0.081088
vt 0.865261 0.237912
vt 0.909172 0.074012
vt 0.907683 0.073822
vt 0.264554 0.307836
vt 0.361385 0.741430
vt 0.376585 0.750000
vt 0.279754 0.316406
vt 0.276002 0.316406
vt 0.361385 0.508570
vt 0.264554 0.074976
vt 0.376585 0.500000
vt 0.279754 0.066406
vt 0.276002 0.066406
vt 0.132858 0.625000
vt 0.036027 0.191406
vt 0.376586 0.125000
vt 0.028169 0.191295
vt 0.028169 0.191518
vt 0.364404 0.625000
vt 0.267573 0.191406
vt 0.376584 0.562500
vt 0.279753 0.128906
vt 0.361564 0.562500
vt 0.264734 0.128906
vt 0.028169 0.128906
vt 0.376586 0.187500
vt 0.028169 0.128429
vt 0.135010 0.562500
vt 0.038179 0.128906
vt 0.038179 0.253906
vt 0.135010 0.687500
vt 0.376586 0.062500
vt 0.028169 0.253906
vt 0.028169 0.254384
vt 0.376584 0.687500
vt 0.279753 0.253906
vt 0.264734 0.253906
vt 0.361564 0.687500
vt 0.046507 0.307836
vt 0.143338 0.741430
vt 0.786890 0.138389
vt 0.376586 0.978054
vt 0.049242 0.316070
vt 0.049752 0.316406
vt 0.038635 0.302648
vt 0.135466 0.736242
vt 0.376586 0.014216
vt 0.786892 0.144341
vt 0.028169 0.302190
vt 0.135466 0.513758
vt 0.038635 0.080164
vt 0.376586 0.235784
vt 0.762088 0.237112
vt 0.028169 0.080623
vt 0.143338 0.508570
vt 0.046507 0.074976
vt 0.049242 0.066742
vt 0.049752 0.066406
vt 0.376586 0.271946
vt 0.762088 0.252253
vt 0.623000 0.634697
vt 0.698424 0.201103
vt 0.280090 0.201103
vt 0.623000 0.615303
vt 0.698842 0.192658
vt 0.280090 0.181709
vt 0.698424 0.181709
vt 0.712241 0.186911
vt 0.712241 0.195901
vt 0.376584 0.615303
vt 0.033675 0.181709
vt 0.279753 0.181709
vt 0.376584 0.634697
vt 0.280172 0.190155
vt 0.279753 0.201103
vt 0.033675 0.201103
vt 0.267602 0.191406
vt 0.814785 0.739175
vt 0.890209 0.305582
vt 0.814785 0.510825
vt 0.890209 0.077231
vt 0.686309 0.739175
vt 0.761732 0.305582
vt 0.698422 0.316406
vt 0.700424 0.316406
vt 0.622998 0.750000
vt 0.686309 0.510825
vt 0.761732 0.077231
vt 0.622998 0.500000
vt 0.700424 0.066406
vt 0.698422 0.066406
vt 0.925757 0.202231
vt 0.850333 0.635825
vt 0.925757 0.180582
vt 0.933097 0.191406
vt 0.850333 0.614175
vt 0.622997 0.125000
vt 0.948251 0.191406
vt 0.950424 0.191406
vt 0.656273 0.614175
vt 0.731697 0.180582
vt 0.731697 0.202231
vt 0.656273 0.635825
vt 0.946293 0.128906
vt 0.622997 0.187500
vt 0.950424 0.128906
vt 0.950424 0.129047
vt 0.908708 0.128906
vt 0.917793 0.139731
vt 0.842369 0.573325
vt 0.893984 0.118082
vt 0.818560 0.551675
vt 0.664824 0.573325
vt 0.740248 0.139731
vt 0.622999 0.562500
vt 0.698423 0.128906
vt 0.757923 0.118082
vt 0.682499 0.551675
vt 0.698423 0.253906
vt 0.622999 0.687500
vt 0.740248 0.243082
vt 0.664824 0.676675
vt 0.757923 0.264731
vt 0.682499 0.698325
vt 0.908708 0.253906
vt 0.917793 0.243082
vt 0.842369 0.676675
vt 0.946293 0.253906
vt 0.950424 0.253906
vt 0.622997 0.062500
vt 0.950424 0.253766
vt 0.893984 0.264731
vt 0.818560 0.698325
vt 0.622997 0.014216
vt 0.950424 0.301724
vt 0.890064 0.144341
vt 0.889978 0.142633
vt 0.622997 0.921699
vt 0.868876 0.316406
vt 0.889888 0.138389
vt 0.890064 0.143542
vt 0.909172 0.308801
vt 0.907683 0.308990
vt 0.622998 0.328301
vt 0.865175 0.238820
vt 0.868876 0.066406
vt 0.865261 0.275849
vt 0.622997 0.235784
vt 0.950424 0.081088
vt 0.865261 0.237112
vt 0.865261 0.237912
vt 0.909172 0.074012
vt 0.907683 0.073822
vt 0.264554 0.307836
vt 0.361385 0.741430
vt 0.376585 0.750000
vt 0.279754 0.316406
vt 0.276002 0.316406
vt 0.361385 0.508570
vt 0.264554 0.074976
vt 0.376585 0.500000
vt 0.279754 0.066406
vt 0.276002 0.066406
vt 0.036027 0.191406
vt 0.132858 0.625000
vt 0.376586 0.125000
vt 0.028169 0.191295
vt 0.028169 0.191518
vt 0.364404 0.625000
vt 0.267573 0.191406
vt 0.376584 0.562500
vt 0.279753 0.128906
vt 0.361564 0.562500
vt 0.264734 0.128906
vt 0.376586 0.187500
vt 0.028169 0.128906
vt 0.028169 0.128429
vt 0.135010 0.562500
vt 0.038179 0.128906
vt 0.038179 0.253906
vt 0.135010 0.687500
vt 0.376586 0.062500
vt 0.028169 0.253906
vt 0.028169 0.254384
vt 0.376584 0.687500
vt 0.279753 0.253906
vt 0.264734 0.253906
vt 0.361564 0.687500
vt 0.046507 0.307836
vt 0.143338 0.741430
vt 0.786890 0.138389
vt 0.049752 0.316406
vt 0.376586 0.978054
vt 0.049242 0.316070
vt 0.038635 0.302648
vt 0.135466 0.736242
vt 0.376586 0.014216
vt 0.786892 0.144341
vt 0.028169 0.302190
vt 0.135466 0.513758
vt 0.038635 0.080164
vt 0.376586 0.235784
vt 0.762088 0.237112
vt 0.028169 0.080623
vt 0.143338 0.508570
vt 0.046507 0.074976
vt 0.762088 0.252253
vt 0.049752 0.066406
vt 0.376586 0.271946
vt 0.049242 0.066742
vt 0.698424 0.201103
vt 0.623000 0.634697
vt 0.280090 0.201103
vt 0.698842 0.192658
vt 0.623000 0.615303
vt 0.698424 0.181709
vt 0.280090 0.181709
vt 0.712241 0.186911
vt 0.712241 0.195901
vt 0.033675 0.181709
vt 0.376584 0.615303
vt 0.279753 0.181709
vt 0.376584 0.634697
vt 0.279753 0.201103
vt 0.280172 0.190155
vt 0.033675 0.201103
vt 0.267602 0.191406
vt 0.929427 0.196819
vt 0.850333 0.625000
vt 0.656273 0.625000
vt 0.731697 0.191406
vt 0.280090 0.191406
vt 0.698633 0.196881
vt 0.712241 0.191406
vt 0.279962 0.185932
vt 0.033675 0.191406
s 0
usemtl Material
f 23/55/1 24/57/1 26/65/1
f 4/9/2 46/115/2 31/79/2
f 52/132/3 6/12/3 33/84/3
f 23/56/4 3/5/4 20/47/4
f 51/128/5 38/96/5 40/101/5
f 5/10/4 14/34/4 17/41/4
f 37/94/6 54/137/6 57/143/6
f 34/87/5 44/111/5 41/104/5
f 11/25/7 55/141/7 10/24/7
f 38/96/5 34/87/5 40/101/5
f 7/15/4 19/45/4 11/26/4
f 48/120/8 22/54/8 42/105/8
f 9/21/9 39/99/9 35/89/9
f 12/28/10 50/125/10 39/99/10
f 33/84/6 16/38/6 37/94/6
f 15/36/4 8/19/4 10/23/4
f 42/105/11 9/21/11 35/89/11
f 7/16/12 8/17/12 9/20/12
f 19/44/13 53/135/13 56/142/13
f 12/27/14 13/31/14 14/35/14
f 15/37/15 16/39/15 17/40/15
f 18/42/16 19/44/16 20/46/16
f 21/48/17 22/51/17 23/55/17
f 2/4/18 28/73/18 12/29/18
f 20/46/16 4/7/16 18/42/16
f 5/11/19 27/69/19 29/76/19
f 21/49/20 9/22/20 22/52/20
f 53/134/21 43/108/21 58/146/21
f 11/26/4 8/19/4 7/15/4
f 13/32/22 9/22/22 8/18/22
f 17/40/23 6/14/23 5/11/23
f 13/33/4 17/41/4 14/34/4
f 38/97/24 57/145/24 59/150/24
f 1/2/25 25/62/25 4/8/25
f 20/47/4 21/50/4 23/56/4
f 18/43/21 31/79/21 43/108/21
f 24/59/26 25/60/26 26/64/26
f 27/67/27 28/71/27 29/74/27
f 27/70/28 50/126/28 28/71/28
f 25/63/29 48/121/29 46/114/29
f 38/97/30 33/85/30 37/95/30
f 40/102/31 35/90/31 39/98/31
f 36/93/32 58/148/32 43/109/32
f 41/103/33 35/91/33 34/88/33
f 44/110/34 31/80/34 30/77/34
f 45/112/35 48/122/35 47/118/35
f 51/129/36 50/127/36 52/130/36
f 47/118/37 42/107/37 41/103/37
f 31/81/38 45/112/38 30/77/38
f 39/100/39 49/124/39 40/102/39
f 33/86/40 51/129/40 52/131/40
f 44/111/5 45/113/5 47/119/5
f 53/135/41 55/141/41 56/142/41
f 57/145/42 58/147/42 59/150/42
f 54/139/43 58/149/43 57/144/43
f 10/24/44 54/140/44 16/39/44
f 85/215/45 81/202/45 82/205/45
f 105/266/2 63/159/2 90/229/2
f 111/282/3 65/162/3 86/217/3
f 62/155/4 82/206/4 79/197/4
f 99/251/5 91/232/5 110/278/5
f 64/160/4 73/185/4 61/153/4
f 96/244/46 113/288/46 75/188/46
f 93/238/5 103/261/5 95/242/5
f 120/304/47 115/292/47 70/175/47
f 93/238/5 97/246/5 99/251/5
f 78/195/4 66/166/4 70/176/4
f 107/270/48 81/203/48 83/207/48
f 98/248/49 68/170/49 94/239/49
f 109/275/50 71/178/50 98/248/50
f 92/234/46 75/188/46 65/162/46
f 74/186/4 67/169/4 72/183/4
f 101/255/51 68/170/51 81/203/51
f 68/171/52 119/301/52 66/165/52
f 115/292/53 77/192/53 78/194/53
f 71/177/54 73/184/54 72/181/54
f 74/187/55 76/190/55 75/189/55
f 77/192/53 79/196/53 78/194/53
f 80/198/56 82/205/56 81/201/56
f 71/179/57 88/225/57 61/154/57
f 79/196/58 63/157/58 62/156/58
f 88/226/59 65/163/59 64/161/59
f 80/199/60 68/172/60 66/165/60
f 102/258/61 112/285/61 117/296/61
f 67/169/4 120/303/4 119/302/4
f 68/172/62 72/182/62 67/167/62
f 65/164/63 76/190/63 64/161/63
f 72/183/4 76/191/4 74/186/4
f 118/300/64 96/245/64 97/247/64
f 63/158/65 85/216/65 60/152/65
f 80/200/4 79/197/4 82/206/4
f 90/229/61 77/193/61 102/258/61
f 83/209/66 85/214/66 84/210/66
f 86/218/67 88/224/67 87/223/67
f 86/220/68 109/276/68 111/280/68
f 107/271/69 84/213/69 105/264/69
f 97/247/70 92/235/70 91/233/70
f 99/252/71 94/240/71 93/237/71
f 102/259/72 118/300/72 95/243/72
f 94/241/73 100/253/73 93/237/73
f 90/230/74 103/260/74 89/227/74
f 107/272/75 104/262/75 106/268/75
f 110/279/76 109/277/76 108/274/76
f 101/257/77 106/268/77 100/253/77
f 90/231/78 104/262/78 105/265/78
f 98/250/79 108/274/79 109/277/79
f 110/279/40 92/236/40 111/281/40
f 106/269/5 89/228/5 103/261/5
f 121/306/80 114/291/80 113/287/80
f 118/300/81 123/308/81 116/295/81
f 117/299/82 121/305/82 123/309/82
f 75/189/83 114/291/83 69/174/83
f 123/309/82 113/290/82 116/293/82
f 115/292/80 121/306/80 112/284/80
f 119/302/4 70/176/4 66/166/4
f 114/291/47 120/304/47 69/174/47
f 26/65/1 1/2/1 23/55/1
f 23/55/1 22/53/1 24/57/1
f 4/9/2 25/61/2 46/115/2
f 52/132/3 27/68/3 6/12/3
f 23/56/4 1/1/4 3/5/4
f 40/101/5 49/123/5 51/128/5
f 51/128/5 32/82/5 38/96/5
f 5/10/4 2/3/4 14/34/4
f 37/94/6 16/38/6 54/137/6
f 34/87/5 36/92/5 44/111/5
f 11/25/7 56/142/7 55/141/7
f 38/96/5 36/92/5 34/87/5
f 7/15/4 21/50/4 19/45/4
f 48/120/8 24/58/8 22/54/8
f 9/21/9 12/28/9 39/99/9
f 12/28/10 28/72/10 50/125/10
f 33/84/6 6/12/6 16/38/6
f 15/36/4 13/33/4 8/19/4
f 42/105/11 22/54/11 9/21/11
f 56/142/13 11/25/13 19/44/13
f 19/44/16 18/42/16 53/135/16
f 12/29/18 14/35/18 2/4/18
f 2/4/18 29/75/18 28/73/18
f 20/46/84 3/6/84 4/7/84
f 29/76/85 2/4/85 5/11/85
f 5/11/86 6/13/86 27/69/86
f 21/49/20 7/16/20 9/22/20
f 53/134/21 18/43/21 43/108/21
f 11/26/4 10/23/4 8/19/4
f 13/32/22 12/30/22 9/22/22
f 17/40/87 16/39/87 6/14/87
f 13/33/4 15/36/4 17/41/4
f 59/150/88 36/93/88 38/97/88
f 38/97/89 37/95/89 57/145/89
f 4/8/90 3/6/90 1/2/90
f 1/2/25 26/66/25 25/62/25
f 20/47/4 19/45/4 21/50/4
f 18/43/21 4/9/21 31/79/21
f 27/70/28 52/133/28 50/126/28
f 25/63/29 24/59/29 48/121/29
f 38/97/91 32/83/91 33/85/91
f 40/102/92 34/88/92 35/90/92
f 43/109/93 44/110/93 36/93/93
f 36/93/94 59/150/94 58/148/94
f 41/103/95 42/106/95 35/91/95
f 44/110/96 43/109/96 31/80/96
f 45/112/97 46/116/97 48/122/97
f 51/129/98 49/124/98 50/127/98
f 47/118/99 48/122/99 42/107/99
f 31/81/78 46/117/78 45/112/78
f 39/100/100 50/127/100 49/124/100
f 33/86/101 32/83/101 51/129/101
f 47/119/5 41/104/5 44/111/5
f 44/111/5 30/78/5 45/113/5
f 53/135/41 54/138/41 55/141/41
f 54/139/43 53/136/43 58/149/43
f 16/39/15 15/37/15 10/24/15
f 10/24/44 55/141/44 54/140/44
f 82/205/45 60/152/45 85/215/45
f 85/215/45 83/208/45 81/202/45
f 105/266/2 84/211/2 63/159/2
f 111/282/3 92/234/3 65/162/3
f 62/155/4 60/151/4 82/206/4
f 110/278/5 108/273/5 99/251/5
f 99/251/5 97/246/5 91/232/5
f 64/160/4 76/191/4 73/185/4
f 96/244/46 116/294/46 113/288/46
f 93/238/5 100/254/5 103/261/5
f 120/304/47 122/307/47 115/292/47
f 93/238/5 95/242/5 97/246/5
f 78/195/4 80/200/4 66/166/4
f 107/270/48 101/255/48 81/203/48
f 98/248/49 71/178/49 68/170/49
f 109/275/50 87/221/50 71/178/50
f 92/234/46 96/244/46 75/188/46
f 74/186/4 69/173/4 67/169/4
f 101/255/51 94/239/51 68/170/51
f 68/171/52 67/168/52 119/301/52
f 78/194/102 70/175/102 115/292/102
f 115/292/102 112/284/102 77/192/102
f 61/154/57 73/184/57 71/179/57
f 71/179/57 87/222/57 88/225/57
f 79/196/53 77/192/53 63/157/53
f 64/161/85 61/154/85 88/226/85
f 88/226/103 86/219/103 65/163/103
f 80/199/60 81/204/60 68/172/60
f 102/258/61 77/193/61 112/285/61
f 67/169/4 69/173/4 120/303/4
f 68/172/62 71/180/62 72/182/62
f 65/164/104 75/189/104 76/190/104
f 72/183/4 73/185/4 76/191/4
f 97/247/105 95/243/105 118/300/105
f 118/300/106 116/295/106 96/245/106
f 60/152/90 62/156/90 63/158/90
f 63/158/65 84/212/65 85/216/65
f 80/200/4 78/195/4 79/197/4
f 90/229/61 63/159/61 77/193/61
f 86/220/68 87/223/68 109/276/68
f 107/271/69 83/209/69 84/213/69
f 97/247/107 96/245/107 92/235/107
f 99/252/108 98/249/108 94/240/108
f 95/243/109 103/260/109 102/259/109
f 102/259/110 117/297/110 118/300/110
f 94/241/111 101/256/111 100/253/111
f 90/230/112 102/259/112 103/260/112
f 107/272/113 105/267/113 104/262/113
f 110/279/114 111/283/114 109/277/114
f 101/257/115 107/272/115 106/268/115
f 90/231/38 89/227/38 104/262/38
f 98/250/116 99/252/116 108/274/116
f 110/279/101 91/233/101 92/236/101
f 103/261/5 100/254/5 106/269/5
f 106/269/5 104/263/5 89/228/5
f 121/306/80 122/307/80 114/291/80
f 118/300/81 117/298/81 123/308/81
f 117/299/82 112/286/82 121/305/82
f 69/174/55 74/187/55 75/189/55
f 75/189/83 113/289/83 114/291/83
f 123/309/82 121/305/82 113/290/82
f 115/292/80 122/307/80 121/306/80
f 119/302/4 120/303/4 70/176/4
f 114/291/47 122/307/47 120/304/47
