# Blender 3.5.0
# www.blender.org
mtllib Arm_R.mtl
o P_Arm_R
v -0.092350 -0.099824 0.099858
v -0.088466 0.099893 0.099858
v -0.092350 -0.099824 -0.099858
v -0.088466 0.099893 -0.099858
v 0.436339 -0.185539 0.020223
v 0.457023 -0.150783 0.020223
v 0.436339 -0.185539 -0.020223
v 0.457023 -0.150783 -0.020223
v 0.343663 -0.153077 -0.057436
v 0.113378 -0.091130 -0.091571
v 0.123174 0.091751 -0.091571
v 0.401163 -0.051780 -0.057501
v 0.113378 -0.091130 0.091571
v 0.343663 -0.153077 0.057436
v 0.401163 -0.051780 0.057501
v 0.123174 0.091751 0.091571
v 0.113378 -0.091130 0.091571
v 0.343663 -0.153077 0.057436
vn -0.0399 -0.7139 -0.6991
vn 0.8820 -0.0603 -0.4674
vn 0.3485 -0.8194 -0.4551
vn 0.3485 -0.8194 0.4551
vn -0.0050 -0.6620 0.7495
vn 0.0553 0.7009 0.7111
vn 0.0583 -0.7111 0.7007
vn -0.0399 -0.7139 0.6991
vn 0.0553 0.7009 -0.7111
vn 0.2287 0.7126 0.6632
vn 0.2287 0.7126 -0.6632
vn 0.6070 0.4718 -0.6395
vn 0.8820 -0.0603 0.4674
vn 0.6070 0.4718 0.6395
vn -0.0050 -0.6620 -0.7495
vn 0.0583 -0.7111 -0.7007
vt 0.864664 0.499465
vt 0.856485 0.752366
vt 0.867161 0.246040
vt 0.861542 0.999893
vt 0.864133 0.000107
vt 0.358201 0.325393
vt 0.358193 0.324669
vt 0.357731 0.325885
vt 0.357338 0.325199
vt 0.357185 0.329235
vt 1.000041 0.266939
vt 0.591627 0.639113
vt 0.997878 0.957247
vt 1.000203 0.043594
vt 0.015619 0.584575
vt 0.354966 0.324247
vt 1.000089 0.499333
vt 0.591627 0.015430
vt 0.359358 0.325581
vt 0.360327 0.321351
vt 1.000076 0.730262
vt 0.053331 0.069580
s 1
usemtl Arm
f 9/10/1 8/9/2 7/8/3
f 8/9/2 5/6/4 7/8/3
f 13/17/5 2/2/6 1/1/7
f 7/8/3 14/19/8 9/10/1
f 4/4/9 16/21/10 11/13/11
f 12/16/12 6/7/13 8/9/2
f 11/15/11 15/20/14 12/16/12
f 10/11/15 1/1/7 3/3/16
f 9/10/1 13/18/5 10/12/15
f 6/7/13 14/19/8 5/6/4
f 15/20/14 13/18/5 14/19/8
f 4/5/9 10/11/15 3/3/16
f 10/12/15 12/16/12 9/10/1
f 9/10/1 12/16/12 8/9/2
f 8/9/2 6/7/13 5/6/4
f 13/17/5 16/21/10 2/2/6
f 7/8/3 5/6/4 14/19/8
f 4/4/9 2/2/6 16/21/10
f 12/16/12 15/20/14 6/7/13
f 11/15/11 16/22/10 15/20/14
f 10/11/15 13/17/5 1/1/7
f 9/10/1 14/19/8 13/18/5
f 6/7/13 15/20/14 14/19/8
f 15/20/14 16/22/10 13/18/5
f 4/5/9 11/14/11 10/11/15
f 10/12/15 11/15/11 12/16/12
l 17 18
