# Blender 3.5.0
# www.blender.org
mtllib Foot_R.mtl
o P_Leg_R
v -0.120000 -0.280000 -0.130000
v 0.120000 -0.280000 -0.130000
v 0.083114 -0.280000 -0.380000
v 0.120000 -0.280000 -0.343114
v 0.109196 -0.280000 -0.369197
v 0.083114 -0.113654 -0.344377
v 0.120000 -0.151508 -0.343114
v 0.083114 -0.160109 -0.380000
v 0.109196 -0.124942 -0.343746
v 0.104410 -0.134973 -0.364677
v 0.109196 -0.157791 -0.368935
v 0.083114 -0.131024 -0.369828
v -0.120000 -0.280000 -0.343114
v -0.083114 -0.280000 -0.380000
v -0.109196 -0.280000 -0.369197
v -0.083114 -0.113654 -0.344377
v -0.083114 -0.160109 -0.380000
v -0.120000 -0.151508 -0.343114
v -0.083114 -0.131024 -0.369828
v -0.104410 -0.134973 -0.364677
v -0.109196 -0.157791 -0.368935
v -0.109196 -0.124942 -0.343746
v -0.120000 -0.128312 -0.093114
v -0.083114 -0.100027 -0.130000
v -0.109196 -0.108312 -0.119196
v 0.083114 -0.100027 -0.130000
v 0.120000 -0.128312 -0.093114
v 0.109196 -0.108312 -0.119197
v 0.120000 -0.000630 -0.093114
v 0.083114 -0.000630 -0.130000
v 0.109196 -0.000630 -0.119197
v -0.083114 -0.000630 -0.130000
v -0.120000 -0.000630 -0.093114
v -0.109196 -0.000630 -0.119196
v 0.120000 -0.280000 0.098294
v 0.098294 -0.280000 0.120000
v 0.120000 -0.102908 0.098294
v 0.098294 -0.100027 0.120000
v -0.098294 -0.280000 0.120000
v -0.120000 -0.280000 0.098294
v -0.098294 -0.100027 0.120000
v -0.120000 -0.102908 0.098294
v 0.098294 -0.000630 0.120000
v 0.120000 -0.000630 0.098294
v -0.120000 -0.000630 0.098294
v -0.098294 -0.000630 0.120000
vn 0.9964 0.0555 -0.0637
vn 0.7173 -0.6303 0.2971
vn 0.7071 -0.7071 -0.0000
vn -0.7173 0.6303 0.2971
vn 0.7319 0.6657 -0.1456
vn 0.1456 0.6657 -0.7319
vn 0.9627 0.1792 -0.2028
vn 0.7319 -0.6656 -0.1458
vn -0.1809 0.1510 -0.9718
vn 0.1456 -0.6657 -0.7319
vn -0.1456 -0.6657 -0.7319
vn 0.9239 -0.0000 0.3827
vn 0.7173 0.6303 0.2971
vn -0.7071 -0.7071 -0.0000
vn -0.9627 0.1792 -0.2028
vn -0.7319 -0.6656 -0.1458
vn 0.3827 -0.0000 0.9239
vn -0.2971 -0.6303 0.7173
vn 0.2971 -0.6303 0.7173
vn -0.2670 0.6676 -0.6950
vn 0.1841 0.9343 -0.3054
vn -0.1841 0.9343 -0.3054
vn 0.2670 0.6676 -0.6950
vn -0.9239 -0.0000 0.3827
vn -0.7319 0.6657 -0.1456
vn -0.9964 0.0555 -0.0637
vn -0.2971 0.6303 0.7173
vn -0.3827 -0.0000 0.9239
vn -0.7173 -0.6303 0.2971
vn 0.5661 0.5016 -0.6542
vn 0.1433 0.6022 -0.7854
vn 0.6904 0.6818 -0.2417
vn 0.1809 0.1510 -0.9718
vn 0.6929 0.1262 -0.7099
vn -0.5661 0.5016 -0.6542
vn -0.6904 0.6818 -0.2417
vn -0.1433 0.6022 -0.7854
vn -0.6929 0.1262 -0.7099
vn -0.8527 0.3661 -0.3727
vn -0.5493 -0.6300 -0.5490
vn 0.5493 -0.6300 -0.5490
vn 0.8527 0.3661 -0.3727
vn -0.5490 0.6303 -0.5490
vn -0.1456 0.6657 -0.7319
vn 0.5490 0.6303 -0.5490
vn 0.2971 0.6303 0.7173
vt 0.375000 0.375000
vt 0.250000 0.500000
vt 0.375000 0.875000
vt 0.250000 0.750000
vt 0.375000 0.711577
vt 0.375000 0.768443
vt 0.356557 0.750000
vt 0.375000 0.750000
vt 0.369598 0.738746
vt 0.642811 0.711577
vt 0.569701 0.768443
vt 0.566181 0.711577
vt 0.625000 0.766692
vt 0.641692 0.750000
vt 0.620646 0.744587
vt 0.569878 0.750000
vt 0.625000 0.711577
vt 0.375000 0.481557
vt 0.356557 0.500000
vt 0.375000 0.538423
vt 0.375000 0.500000
vt 0.369598 0.511254
vt 0.642811 0.538423
vt 0.566181 0.538423
vt 0.569702 0.481557
vt 0.625000 0.538423
vt 0.618754 0.503522
vt 0.569878 0.500000
vt 0.641692 0.500000
vt 0.625000 0.483308
vt 0.587383 0.356557
vt 0.593422 0.356557
vt 0.625000 0.356557
vt 0.750000 0.538423
vt 0.750000 0.500000
vt 0.625000 0.375000
vt 0.750000 0.711577
vt 0.593422 0.893443
vt 0.625000 0.893443
vt 0.587383 0.893443
vt 0.750000 0.750000
vt 0.625000 0.875000
vt 0.768443 0.750000
vt 0.625000 0.893443
vt 0.750000 0.711577
vt 0.755402 0.738746
vt 0.750000 0.750000
vt 0.625000 0.875000
vt 0.750000 0.538423
vt 0.768443 0.500000
vt 0.625000 0.356557
vt 0.625000 0.375000
vt 0.755402 0.511254
vt 0.750000 0.500000
vt 0.375000 0.000000
vt 0.375000 0.989147
vt 0.135853 0.750000
vt 0.375000 0.022611
vt 0.125000 0.727389
vt 0.625000 0.000000
vt 0.621784 0.989147
vt 0.625000 0.989147
vt 0.621784 0.000000
vt 0.625000 0.022611
vt 0.375000 0.227389
vt 0.125000 0.522611
vt 0.375000 0.260853
vt 0.135853 0.500000
vt 0.625000 0.227389
vt 0.621784 0.260853
vt 0.625000 0.260853
vt 0.875000 0.727389
vt 0.625000 0.022611
vt 0.625000 0.989147
vt 0.864147 0.750000
vt 0.625000 0.000000
vt 0.864147 0.500000
vt 0.625000 0.260853
vt 0.875000 0.522611
vt 0.625000 0.227389
s 1
usemtl Leg
f 27/38/1 35/56/2 2/3/3
f 45/77/4 29/43/5 30/45/6
f 7/11/7 2/3/3 4/6/8
f 17/24/9 3/5/10 14/20/11
f 37/62/12 29/44/5 44/74/13
f 1/1/14 18/25/15 13/18/16
f 38/64/17 39/65/18 36/58/19
f 24/34/20 6/10/21 16/23/22
f 24/34/20 30/45/6 26/37/23
f 42/71/24 33/51/25 23/33/26
f 38/64/17 46/80/27 41/69/28
f 40/67/29 23/32/26 1/1/14
f 6/10/21 10/15/30 12/17/31
f 7/11/7 10/15/30 9/13/32
f 8/12/33 10/15/30 11/16/34
f 16/23/22 20/27/35 22/29/36
f 17/24/9 20/27/35 19/26/37
f 18/25/15 20/27/35 21/28/38
f 24/34/20 22/29/36 25/35/39
f 25/36/39 18/25/15 23/31/26
f 17/24/9 15/21/40 21/28/38
f 21/28/38 13/18/16 18/25/15
f 6/10/21 19/26/37 16/23/22
f 12/17/31 17/24/9 19/26/37
f 4/6/8 11/16/34 7/11/7
f 5/8/41 8/12/33 11/16/34
f 26/37/23 9/14/32 6/10/21
f 28/42/42 7/11/7 9/13/32
f 24/34/20 34/54/43 32/49/44
f 25/36/39 33/51/25 34/52/43
f 26/37/23 31/47/45 28/41/42
f 28/42/42 29/44/5 27/39/1
f 14/20/11 5/9/41 2/4/3
f 37/63/12 36/58/19 35/55/2
f 42/70/24 39/65/18 41/69/28
f 44/76/13 38/64/17 37/60/12
f 45/78/4 41/69/28 46/80/27
f 40/68/29 2/4/3 36/59/19
f 27/38/1 37/61/12 35/56/2
f 30/45/6 32/49/44 34/53/43
f 34/53/43 33/50/25 45/77/4
f 45/77/4 46/79/27 43/72/46
f 43/72/46 44/75/13 29/43/5
f 29/43/5 31/46/45 30/45/6
f 30/45/6 34/53/43 45/77/4
f 45/77/4 43/72/46 29/43/5
f 7/11/7 27/40/1 2/3/3
f 17/24/9 8/12/33 3/5/10
f 37/62/12 27/39/1 29/44/5
f 1/1/14 23/31/26 18/25/15
f 38/64/17 41/69/28 39/65/18
f 24/34/20 26/37/23 6/10/21
f 24/34/20 32/49/44 30/45/6
f 42/71/24 45/78/4 33/51/25
f 38/64/17 43/73/46 46/80/27
f 40/67/29 42/70/24 23/32/26
f 6/10/21 9/14/32 10/15/30
f 7/11/7 11/16/34 10/15/30
f 8/12/33 12/17/31 10/15/30
f 16/23/22 19/26/37 20/27/35
f 17/24/9 21/28/38 20/27/35
f 18/25/15 22/30/36 20/27/35
f 24/34/20 16/23/22 22/29/36
f 25/36/39 22/30/36 18/25/15
f 17/24/9 14/20/11 15/21/40
f 21/28/38 15/21/40 13/18/16
f 6/10/21 12/17/31 19/26/37
f 12/17/31 8/12/33 17/24/9
f 4/6/8 5/8/41 11/16/34
f 5/8/41 3/5/10 8/12/33
f 26/37/23 28/41/42 9/14/32
f 28/42/42 27/40/1 7/11/7
f 24/34/20 25/35/39 34/54/43
f 25/36/39 23/33/26 33/51/25
f 26/37/23 30/45/6 31/47/45
f 28/42/42 31/48/45 29/44/5
f 2/4/3 1/2/14 13/19/16
f 13/19/16 15/22/40 14/20/11
f 14/20/11 3/5/10 5/9/41
f 5/9/41 4/7/8 2/4/3
f 2/4/3 13/19/16 14/20/11
f 37/63/12 38/64/17 36/58/19
f 42/70/24 40/67/29 39/65/18
f 44/76/13 43/73/46 38/64/17
f 45/78/4 42/71/24 41/69/28
f 36/59/19 39/66/18 40/68/29
f 40/68/29 1/2/14 2/4/3
f 2/4/3 35/57/2 36/59/19
