# Blender 3.5.0
# www.blender.org
mtllib Wing_L.mtl
o E_Wing_L
v -0.040830 -0.076353 0.065182
v -0.038313 0.107406 0.065182
v -2.123180 0.288563 0.065182
v -2.712778 0.423322 -0.006398
v -0.040830 -0.076353 -0.063380
v -0.038313 0.107406 -0.063380
v -2.123180 0.288563 -0.063380
v -2.712777 0.423322 -0.040434
v -0.039469 0.032242 0.065182
v -2.273839 0.366039 0.065182
v -2.273840 0.366039 -0.063380
v -0.039469 0.032242 -0.063380
v -1.200884 -0.172928 0.065182
v -1.032676 0.816288 0.065182
v -1.200884 -0.172928 -0.063380
v -1.032676 0.816288 -0.063380
v -1.200884 0.032242 -0.063380
v -1.200884 0.032242 0.065182
v -0.594564 -0.488882 0.065182
v -0.590414 0.479128 -0.063380
v -0.637415 0.032242 -0.063380
v -0.590414 0.479128 0.065182
v -0.594564 -0.488882 -0.063380
v -0.637415 0.032242 0.065182
v -1.541178 0.841795 0.065182
v -1.676801 -0.083021 -0.063380
v -1.618847 0.196316 0.065182
v -1.676801 -0.083021 0.065182
v -1.541178 0.841795 -0.063380
v -1.618847 0.196316 -0.063380
v -0.391666 -0.215790 0.065182
v -0.380820 0.341826 -0.063380
v -0.387415 0.032242 -0.063380
v -0.380820 0.341826 0.065182
v -0.391666 -0.215790 -0.063380
v -0.387415 0.032242 0.065182
v -0.838476 0.679374 0.065182
v -0.874968 -0.288701 -0.063380
v -0.950884 0.032242 0.065182
v -0.874968 -0.288701 0.065182
v -0.838476 0.679374 -0.063380
v -0.950884 0.032242 -0.063380
v -1.444762 -0.327057 0.065182
v -1.269297 0.941284 -0.063380
v -1.391635 0.096048 -0.063380
v -1.269297 0.941284 0.065182
v -1.444762 -0.327057 -0.063380
v -1.391635 0.096048 0.065182
v -1.927560 0.752521 0.065182
v -1.894056 0.106974 -0.063380
v -1.976397 0.454633 0.065182
v -1.894056 0.106974 0.065182
v -1.927560 0.752521 -0.063380
v -1.976397 0.454633 -0.063380
vn -0.2305 0.6868 0.6893
vn -0.2733 -0.5684 0.7760
vn -0.0000 -0.0000 1.0000
vn -0.8699 -0.1137 0.4799
vn -0.2214 -0.6128 -0.7586
vn -0.0000 -0.0000 -1.0000
vn 0.7006 0.3626 -0.6145
vn 0.7067 -0.0099 -0.7074
vn 0.7067 -0.0099 0.7074
vn 0.3857 -0.5020 -0.7741
vn 0.6587 -0.4531 0.6007
vn 0.3857 -0.5020 0.7741
vn 0.3947 0.5894 0.7048
vn 0.3947 0.5894 -0.7048
vn 0.6587 -0.4531 -0.6007
vn -0.3705 -0.5747 -0.7297
vn -0.3705 -0.5747 0.7297
vn -0.4489 -0.5391 0.7126
vn 0.0635 -0.5690 0.8199
vn -0.3111 -0.5966 0.7397
vn 0.0635 -0.5690 -0.8199
vn -0.0996 -0.8024 -0.5884
vn 0.0527 0.7780 -0.6261
vn 0.3769 0.6146 0.6930
vn 0.3769 0.6146 -0.6930
vn -0.0996 -0.8024 0.5884
vn 0.4303 0.5701 0.6999
vn 0.1267 -0.8059 0.5784
vn -0.3111 -0.5966 -0.7397
vn 0.1267 -0.8059 -0.5784
vn 0.4095 0.5622 -0.7184
vn 0.4303 0.5701 -0.6999
vn -0.1973 0.6639 -0.7213
vn -0.4821 -0.5026 -0.7176
vn -0.4821 -0.5026 0.7176
vn -0.2251 0.6891 -0.6888
vn -0.4489 -0.5391 -0.7126
vn -0.1973 0.6639 0.7213
vn 0.7006 0.3626 0.6145
vn 0.4095 0.5622 0.7184
vn 0.0527 0.7780 0.6261
vn -0.8456 -0.1125 -0.5218
vt 0.899206 0.389328
vt 0.352754 0.919311
vt 0.470250 0.422815
vt 0.352754 0.949163
vt 0.411665 0.876155
vt 0.444354 0.407962
vt 0.591538 0.101525
vt 0.352754 0.536922
vt 0.621462 0.007935
vt 0.364382 0.438679
vt 0.401885 0.438704
vt 0.373638 0.919311
vt 0.920090 0.389328
vt 0.260467 0.007935
vt 0.234569 0.022786
vt 0.373638 0.949163
vt 0.390785 0.876059
vt 0.381730 0.329234
vt 0.373638 0.536922
vt 0.396357 0.438679
vt 0.369910 0.438679
vt 0.411665 0.422809
vt 0.352754 0.936952
vt 0.454957 0.414020
vt 0.352754 0.510324
vt 0.593174 0.074053
vt 0.373638 0.510324
vt 0.383363 0.356706
vt 0.373638 0.936952
vt 0.245173 0.016729
vt 0.352754 0.699300
vt 0.579737 0.268639
vt 0.410524 0.703979
vt 0.427535 0.210303
vt 0.373638 0.699300
vt 0.369942 0.162119
vt 0.389644 0.703884
vt 0.217735 0.220444
vt 0.341259 0.179093
vt 0.551056 0.251663
vt 0.573736 0.379541
vt 0.352754 0.806485
vt 0.389508 0.892024
vt 0.390219 0.780815
vt 0.228280 0.130722
vt 0.294642 0.100321
vt 0.411099 0.780911
vt 0.438073 0.300025
vt 0.363949 0.051216
vt 0.373638 0.806485
vt 0.410392 0.892024
vt 0.504433 0.330432
vt 0.410982 0.621374
vt 0.466044 0.137108
vt 0.373638 0.620655
vt 0.396747 0.236089
vt 0.562703 0.179659
vt 0.352754 0.620655
vt 0.606548 0.194671
vt 0.256239 0.293642
vt 0.390102 0.621278
vt 0.352901 0.251098
vt 0.899206 0.338492
vt 0.389508 0.937149
vt 0.518772 0.385308
vt 0.390422 0.816911
vt 0.230134 0.090062
vt 0.273959 0.065371
vt 0.439924 0.340686
vt 0.411302 0.817007
vt 0.920090 0.338492
vt 0.308985 0.045445
vt 0.410392 0.937149
vt 0.483747 0.365380
vt 0.410742 0.737580
vt 0.430606 0.248779
vt 0.359163 0.106978
vt 0.373638 0.755039
vt 0.530370 0.286611
vt 0.352754 0.755039
vt 0.568954 0.323779
vt 0.220809 0.181968
vt 0.389862 0.737485
vt 0.320576 0.144143
vt 0.621462 0.247300
vt 0.352754 0.665948
vt 0.389508 0.663618
vt 0.219837 0.263864
vt 0.348121 0.211038
vt 0.429640 0.166883
vt 0.410388 0.663714
vt 0.411665 0.183461
vt 0.373638 0.665948
vt 0.557920 0.219718
vt 0.411665 0.560362
vt 0.510495 0.090482
vt 0.388160 0.282180
vt 0.373638 0.579584
vt 0.556178 0.108303
vt 0.352754 0.579584
vt 0.597964 0.148580
vt 0.390785 0.560266
vt 0.300685 0.340271
vt 0.346370 0.322454
s 1
usemtl マテリアル
f 49/96/1 10/26/2 51/99/3
f 4/10/4 11/27/5 10/25/2
f 33/68/6 6/15/7 12/30/8
f 6/16/7 9/23/9 12/29/8
f 35/71/10 1/1/11 31/63/12
f 34/70/13 6/17/7 32/66/14
f 12/29/8 1/2/11 5/12/15
f 33/68/6 5/14/15 35/72/10
f 10/25/2 7/19/16 3/8/17
f 51/99/3 3/7/17 52/101/18
f 39/79/3 13/32/19 40/81/20
f 45/89/6 15/36/21 47/92/22
f 44/87/23 14/33/24 16/37/25
f 43/86/26 15/35/21 13/31/19
f 45/89/6 16/38/25 17/39/6
f 37/76/27 18/40/3 39/79/3
f 34/69/13 24/52/3 36/74/3
f 31/65/12 24/52/3 19/41/28
f 38/77/29 21/46/6 23/49/30
f 37/75/27 20/44/31 41/83/32
f 38/78/29 19/42/28 40/80/20
f 42/84/6 20/45/31 21/46/6
f 54/104/6 29/60/33 30/62/6
f 52/100/18 26/55/34 28/58/35
f 49/95/1 29/61/33 53/102/36
f 50/97/37 30/62/6 26/56/34
f 48/94/3 28/59/35 43/85/26
f 48/94/3 25/54/38 27/57/3
f 1/3/11 36/74/3 31/65/12
f 2/6/39 36/74/3 9/24/9
f 21/46/6 35/72/10 23/49/30
f 22/47/40 32/66/14 20/44/31
f 19/43/28 35/73/10 31/64/12
f 21/46/6 32/67/14 33/68/6
f 17/39/6 41/82/32 42/84/6
f 13/31/19 38/78/29 40/80/20
f 14/33/24 41/83/32 16/37/25
f 15/36/21 42/84/6 38/77/29
f 22/48/40 39/79/3 24/52/3
f 24/52/3 40/81/20 19/41/28
f 14/34/24 48/94/3 18/40/3
f 13/32/19 48/94/3 43/85/26
f 29/60/33 45/89/6 30/62/6
f 26/55/34 43/86/26 28/58/35
f 29/61/33 46/91/41 44/87/23
f 26/56/34 45/89/6 47/92/22
f 7/18/16 54/104/6 50/97/37
f 4/11/4 53/102/36 8/20/42
f 3/8/17 50/98/37 52/100/18
f 11/28/5 53/103/36 54/104/6
f 27/57/3 52/101/18 28/59/35
f 25/54/38 51/99/3 27/57/3
f 49/96/1 4/9/4 10/26/2
f 4/10/4 8/21/42 11/27/5
f 33/68/6 32/67/14 6/15/7
f 6/16/7 2/4/39 9/23/9
f 35/71/10 5/13/15 1/1/11
f 34/70/13 2/5/39 6/17/7
f 12/29/8 9/23/9 1/2/11
f 33/68/6 12/30/8 5/14/15
f 10/25/2 11/27/5 7/19/16
f 51/99/3 10/26/2 3/7/17
f 39/79/3 18/40/3 13/32/19
f 45/89/6 17/39/6 15/36/21
f 44/87/23 46/91/41 14/33/24
f 43/86/26 47/93/22 15/35/21
f 45/89/6 44/88/23 16/38/25
f 37/76/27 14/34/24 18/40/3
f 34/69/13 22/48/40 24/52/3
f 31/65/12 36/74/3 24/52/3
f 38/77/29 42/84/6 21/46/6
f 37/75/27 22/47/40 20/44/31
f 38/78/29 23/50/30 19/42/28
f 42/84/6 41/82/32 20/45/31
f 54/104/6 53/103/36 29/60/33
f 52/100/18 50/98/37 26/55/34
f 49/95/1 25/53/38 29/61/33
f 50/97/37 54/104/6 30/62/6
f 48/94/3 27/57/3 28/59/35
f 48/94/3 46/90/41 25/54/38
f 1/3/11 9/24/9 36/74/3
f 2/6/39 34/69/13 36/74/3
f 21/46/6 33/68/6 35/72/10
f 22/47/40 34/70/13 32/66/14
f 19/43/28 23/51/30 35/73/10
f 21/46/6 20/45/31 32/67/14
f 17/39/6 16/38/25 41/82/32
f 13/31/19 15/35/21 38/78/29
f 14/33/24 37/75/27 41/83/32
f 15/36/21 17/39/6 42/84/6
f 22/48/40 37/76/27 39/79/3
f 24/52/3 39/79/3 40/81/20
f 14/34/24 46/90/41 48/94/3
f 13/32/19 18/40/3 48/94/3
f 29/60/33 44/88/23 45/89/6
f 26/55/34 47/93/22 43/86/26
f 29/61/33 25/53/38 46/91/41
f 26/56/34 30/62/6 45/89/6
f 7/18/16 11/28/5 54/104/6
f 4/11/4 49/95/1 53/102/36
f 3/8/17 7/19/16 50/98/37
f 11/28/5 8/22/42 53/103/36
f 27/57/3 51/99/3 52/101/18
f 25/54/38 49/96/1 51/99/3
