# Blender 3.5.0
# www.blender.org
mtllib Wing_R.mtl
o E_Wing_R
v 0.040829 -0.076353 -0.063947
v 0.038313 0.107406 -0.063947
v 2.123180 0.288563 -0.063947
v 2.712778 0.423322 -0.027366
v 0.040829 -0.076353 0.064615
v 0.038313 0.107406 0.064615
v 2.123180 0.288563 0.064615
v 2.712778 0.423322 0.009991
v 0.039469 0.032242 -0.063947
v 2.273839 0.366039 -0.063947
v 2.273839 0.366039 0.064615
v 0.039469 0.032242 0.064615
v 1.200884 -0.172928 -0.063947
v 1.032676 0.816288 -0.063947
v 1.200884 -0.172928 0.064615
v 1.032676 0.816288 0.064615
v 1.200884 0.032242 0.064615
v 1.200884 0.032242 -0.063947
v 0.594564 -0.488882 -0.063947
v 0.590414 0.479128 0.064615
v 0.637415 0.032242 0.064615
v 0.590414 0.479128 -0.063947
v 0.594564 -0.488882 0.064615
v 0.637415 0.032242 -0.063947
v 1.541178 0.841795 -0.063947
v 1.676800 -0.083021 0.064615
v 1.618846 0.196316 -0.063947
v 1.676800 -0.083021 -0.063947
v 1.541178 0.841795 0.064615
v 1.618846 0.196316 0.064615
v 0.391666 -0.215790 -0.063947
v 0.380819 0.341826 0.064615
v 0.387415 0.032242 0.064615
v 0.380819 0.341826 -0.063947
v 0.391666 -0.215790 0.064615
v 0.387415 0.032242 -0.063947
v 0.838475 0.679374 -0.063947
v 0.874968 -0.288701 0.064615
v 0.950884 0.032242 -0.063947
v 0.874968 -0.288701 -0.063947
v 0.838475 0.679374 0.064615
v 0.950884 0.032242 0.064615
v 1.444762 -0.327057 -0.063947
v 1.269296 0.941284 0.064615
v 1.391634 0.096048 0.064615
v 1.269296 0.941284 -0.063947
v 1.444762 -0.327057 0.064615
v 1.391634 0.096048 -0.063947
v 1.927560 0.752521 -0.063947
v 1.894056 0.106974 0.064615
v 1.976397 0.454633 -0.063947
v 1.894056 0.106974 -0.063947
v 1.927560 0.752521 0.064615
v 1.976397 0.454633 0.064615
vn 0.2266 0.6884 -0.6890
vn 0.2359 -0.6003 -0.7642
vn -0.0000 -0.0000 -1.0000
vn 0.8618 -0.1133 0.4945
vn 0.2551 -0.5838 0.7708
vn -0.0000 -0.0000 1.0000
vn -0.7006 0.3626 0.6145
vn -0.7067 -0.0099 0.7074
vn -0.7067 -0.0099 -0.7074
vn -0.3857 -0.5020 0.7741
vn -0.6587 -0.4531 -0.6007
vn -0.3857 -0.5020 -0.7741
vn -0.3947 0.5894 -0.7048
vn -0.3947 0.5894 0.7048
vn -0.6587 -0.4531 0.6007
vn 0.3705 -0.5747 0.7297
vn 0.3705 -0.5747 -0.7297
vn 0.4489 -0.5391 -0.7126
vn -0.0635 -0.5690 -0.8199
vn 0.3111 -0.5966 -0.7397
vn -0.0635 -0.5690 0.8199
vn 0.0996 -0.8024 0.5884
vn -0.0527 0.7780 -0.6261
vn -0.3769 0.6146 0.6930
vn -0.0527 0.7780 0.6261
vn 0.0996 -0.8024 -0.5884
vn -0.4303 0.5701 -0.6999
vn -0.1267 -0.8059 -0.5784
vn 0.3111 -0.5966 0.7397
vn -0.1267 -0.8059 0.5784
vn -0.4095 0.5622 0.7184
vn -0.4303 0.5701 0.6999
vn 0.1973 0.6639 0.7213
vn 0.4489 -0.5391 0.7126
vn 0.4821 -0.5026 -0.7176
vn 0.2286 0.6876 0.6892
vn 0.4821 -0.5026 0.7176
vn 0.1973 0.6639 -0.7213
vn -0.7006 0.3626 -0.6145
vn -0.4095 0.5622 -0.7184
vn -0.3769 0.6146 -0.6930
vn 0.8527 -0.1128 -0.5100
vt 0.336884 0.438679
vt 0.373638 0.903441
vt 0.050666 0.422813
vt 0.373638 0.875008
vt 0.024769 0.407962
vt 0.279246 0.646005
vt 0.279246 0.438679
vt 0.171930 0.101514
vt 0.201865 0.007935
vt 0.285188 0.557116
vt 0.925916 0.873823
vt 0.352754 0.903441
vt 0.316000 0.438679
vt 0.680049 0.007935
vt 0.654153 0.022788
vt 0.352754 0.875008
vt 0.300130 0.646005
vt 0.801334 0.329226
vt 0.300130 0.438679
vt 0.291256 0.557116
vt 0.931983 0.873820
vt 0.831259 0.422806
vt 0.373638 0.886632
vt 0.035372 0.414018
vt 0.279246 0.624785
vt 0.173564 0.074042
vt 0.300130 0.624785
vt 0.802969 0.356698
vt 0.352754 0.886632
vt 0.664756 0.016730
vt 0.336884 0.626124
vt 0.160142 0.268629
vt 0.919108 0.595912
vt 0.326497 0.862153
vt 0.007935 0.210304
vt 0.316000 0.626124
vt 0.789535 0.162111
vt 0.305612 0.862153
vt 0.939988 0.595901
vt 0.637332 0.220446
vt 0.760853 0.179087
vt 0.131459 0.251655
vt 0.154149 0.379531
vt 0.336884 0.540870
vt 0.918658 0.890023
vt 0.305612 0.935497
vt 0.647871 0.130724
vt 0.714231 0.100318
vt 0.326497 0.935497
vt 0.939536 0.889693
vt 0.018480 0.300025
vt 0.783534 0.051210
vt 0.316000 0.540870
vt 0.084842 0.330427
vt 0.918912 0.677696
vt 0.046439 0.137106
vt 0.300130 0.500729
vt 0.816344 0.236080
vt 0.143101 0.179650
vt 0.279246 0.500729
vt 0.186947 0.194659
vt 0.939793 0.677684
vt 0.675841 0.293642
vt 0.772500 0.251091
vt 0.099185 0.385302
vt 0.336884 0.499194
vt 0.352754 0.822355
vt 0.918658 0.921690
vt 0.649722 0.090064
vt 0.693546 0.065370
vt 0.373638 0.822355
vt 0.020334 0.340686
vt 0.939536 0.921360
vt 0.728570 0.045442
vt 0.316000 0.499194
vt 0.064159 0.365376
vt 0.326497 0.892629
vt 0.011008 0.248780
vt 0.778752 0.106971
vt 0.316000 0.578421
vt 0.110776 0.286604
vt 0.336884 0.578421
vt 0.149362 0.323770
vt 0.640403 0.181970
vt 0.305612 0.892629
vt 0.740168 0.144139
vt 0.336884 0.670175
vt 0.201865 0.247287
vt 0.279246 0.541246
vt 0.639437 0.263867
vt 0.939538 0.632132
vt 0.767717 0.211032
vt 0.010037 0.166883
vt 0.918658 0.632143
vt 0.831259 0.183451
vt 0.316000 0.670175
vt 0.300130 0.541246
vt 0.138321 0.219709
vt 0.919108 0.741591
vt 0.090886 0.090476
vt 0.807761 0.282171
vt 0.300130 0.469044
vt 0.136570 0.108294
vt 0.279246 0.469044
vt 0.178360 0.148568
vt 0.939988 0.741580
vt 0.720291 0.340269
vt 0.765974 0.322448
s 1
usemtl マテリアル
f 49/100/1 10/26/2 51/103/3
f 10/25/2 8/20/4 11/27/5
f 33/70/6 6/15/7 12/30/8
f 6/16/7 9/23/9 12/29/8
f 35/75/10 1/1/11 31/66/12
f 34/71/13 6/16/7 32/67/14
f 12/29/8 1/2/11 5/12/15
f 33/70/6 5/14/15 35/74/10
f 10/25/2 7/17/16 3/6/17
f 51/103/3 3/8/17 52/105/18
f 39/81/3 13/32/19 40/83/20
f 45/92/6 15/37/21 47/95/22
f 46/94/23 16/39/24 44/91/25
f 47/96/22 13/31/19 43/87/26
f 45/92/6 16/40/24 17/41/6
f 37/78/27 18/42/3 39/81/3
f 34/72/13 24/54/3 36/76/3
f 31/65/12 24/54/3 19/43/28
f 38/79/29 21/48/6 23/52/30
f 37/77/27 20/46/31 41/85/32
f 38/80/29 19/44/28 40/82/20
f 42/86/6 20/47/31 21/48/6
f 54/108/6 29/63/33 30/64/6
f 50/102/34 28/60/35 52/104/18
f 49/99/1 29/62/33 53/106/36
f 50/101/34 30/64/6 26/58/37
f 48/98/3 28/61/35 43/88/26
f 48/98/3 25/56/38 27/59/3
f 1/3/11 36/76/3 31/65/12
f 2/5/39 36/76/3 9/24/9
f 21/48/6 35/74/10 23/52/30
f 22/50/40 32/68/14 20/45/31
f 23/53/30 31/66/12 19/44/28
f 21/48/6 32/69/14 33/70/6
f 17/41/6 41/84/32 42/86/6
f 15/36/21 40/82/20 13/31/19
f 14/34/41 41/85/32 16/38/24
f 15/37/21 42/86/6 38/79/29
f 22/51/40 39/81/3 24/54/3
f 24/54/3 40/83/20 19/43/28
f 14/35/41 48/98/3 18/42/3
f 13/32/19 48/98/3 43/88/26
f 29/63/33 45/92/6 30/64/6
f 26/57/37 43/89/26 28/60/35
f 25/55/38 44/91/25 29/62/33
f 26/58/37 45/92/6 47/95/22
f 7/18/16 54/108/6 50/101/34
f 8/21/4 49/99/1 53/106/36
f 7/19/16 52/104/18 3/7/17
f 11/28/5 53/107/36 54/108/6
f 27/59/3 52/105/18 28/61/35
f 25/56/38 51/103/3 27/59/3
f 49/100/1 4/9/42 10/26/2
f 10/25/2 4/10/42 8/20/4
f 33/70/6 32/69/14 6/15/7
f 6/16/7 2/4/39 9/23/9
f 35/75/10 5/13/15 1/1/11
f 34/71/13 2/4/39 6/16/7
f 12/29/8 9/23/9 1/2/11
f 33/70/6 12/30/8 5/14/15
f 10/25/2 11/27/5 7/17/16
f 51/103/3 10/26/2 3/8/17
f 39/81/3 18/42/3 13/32/19
f 45/92/6 17/41/6 15/37/21
f 46/94/23 14/33/41 16/39/24
f 47/96/22 15/36/21 13/31/19
f 45/92/6 44/90/25 16/40/24
f 37/78/27 14/35/41 18/42/3
f 34/72/13 22/51/40 24/54/3
f 31/65/12 36/76/3 24/54/3
f 38/79/29 42/86/6 21/48/6
f 37/77/27 22/49/40 20/46/31
f 38/80/29 23/53/30 19/44/28
f 42/86/6 41/84/32 20/47/31
f 54/108/6 53/107/36 29/63/33
f 50/102/34 26/57/37 28/60/35
f 49/99/1 25/55/38 29/62/33
f 50/101/34 54/108/6 30/64/6
f 48/98/3 27/59/3 28/61/35
f 48/98/3 46/93/23 25/56/38
f 1/3/11 9/24/9 36/76/3
f 2/5/39 34/72/13 36/76/3
f 21/48/6 33/70/6 35/74/10
f 22/50/40 34/73/13 32/68/14
f 23/53/30 35/75/10 31/66/12
f 21/48/6 20/47/31 32/69/14
f 17/41/6 16/40/24 41/84/32
f 15/36/21 38/80/29 40/82/20
f 14/34/41 37/77/27 41/85/32
f 15/37/21 17/41/6 42/86/6
f 22/51/40 37/78/27 39/81/3
f 24/54/3 39/81/3 40/83/20
f 14/35/41 46/93/23 48/98/3
f 13/32/19 18/42/3 48/98/3
f 29/63/33 44/90/25 45/92/6
f 26/57/37 47/97/22 43/89/26
f 25/55/38 46/94/23 44/91/25
f 26/58/37 30/64/6 45/92/6
f 7/18/16 11/28/5 54/108/6
f 8/21/4 4/11/42 49/99/1
f 7/19/16 50/102/34 52/104/18
f 11/28/5 8/22/4 53/107/36
f 27/59/3 51/103/3 52/105/18
f 25/56/38 49/100/1 51/103/3
