# Blender v3.5.0 OBJ File: ''
# www.blender.org
mtllib fallingCarrot.mtl
o 立方体.001_立方体.005
v -0.122339 1.823237 0.048133
v -0.527645 2.621488 -0.610502
v -0.198738 1.682009 -0.076018
v -0.604044 2.480260 -0.734653
v 0.050521 1.823237 -0.058240
v -0.354786 2.621488 -0.716875
v -0.025878 1.682009 -0.182391
v -0.431185 2.480260 -0.841026
v 0.066407 1.823237 0.021104
v -0.200978 2.621488 0.746761
v 0.016006 1.682009 0.157889
v -0.251379 2.480260 0.883546
v -0.124042 1.823237 -0.049071
v -0.391427 2.621488 0.676586
v -0.174443 1.682009 0.087713
v -0.441828 2.480260 0.813370
v 0.006440 1.823237 -0.171607
v 0.779383 2.621488 -0.146482
v 0.152138 1.682009 -0.166871
v 0.925081 2.480260 -0.141746
v -0.000154 1.823237 0.031252
v 0.772789 2.621488 0.056378
v 0.145544 1.682009 0.035988
v 0.918487 2.480260 0.061114
v 0.610703 -1.831469 -0.680862
v 1.000000 1.831469 -0.680862
v 0.610703 -1.831469 0.680862
v 1.000000 1.831469 0.680862
v -0.610703 -1.831469 -0.680862
v -1.000000 1.831469 -0.680862
v -0.610703 -1.831469 0.680862
v -1.000000 1.831469 0.680862
vt 0.531037 0.545200
vt 0.558871 0.706628
vt 0.531037 0.703134
vt 0.655733 0.547960
vt 0.685943 0.663068
vt 0.655733 0.663068
vt 0.502536 0.703064
vt 0.531037 0.545200
vt 0.531037 0.699443
vt 0.625523 0.569658
vt 0.655733 0.684765
vt 0.625523 0.684765
vt 0.685943 0.684765
vt 0.625523 0.547960
vt 0.473992 0.705017
vt 0.444894 0.545200
vt 0.473992 0.547714
vt 0.716153 0.569658
vt 0.685943 0.684765
vt 0.685943 0.569658
vt 0.473992 0.547631
vt 0.502536 0.705559
vt 0.473992 0.707990
vt 0.595313 0.569658
vt 0.625523 0.684765
vt 0.595313 0.684765
vt 0.716153 0.547960
vt 0.595313 0.547960
vt 0.625523 0.569658
vt 0.384479 0.545200
vt 0.414687 0.710619
vt 0.384479 0.710614
vt 0.746145 0.547960
vt 0.716153 0.674581
vt 0.716153 0.550352
vt 0.414687 0.545206
vt 0.444894 0.710614
vt 0.414687 0.710619
vt 0.558871 0.566898
vt 0.589081 0.682005
vt 0.558871 0.682005
vt 0.580840 0.713960
vt 0.558871 0.682005
vt 0.580840 0.683872
vt 0.558871 0.545200
vt 0.589081 0.566898
vt 1.000000 0.547244
vt 0.797656 0.000716
vt 1.000000 0.000000
vt 0.595313 0.545200
vt 0.355595 0.000000
vt 0.537374 0.000000
vt 0.797656 0.547244
vt 0.595313 0.000716
vt 0.797656 0.000000
vt 0.297656 0.545200
vt 0.057938 0.000000
vt 0.239718 0.000000
vt 0.384479 0.545200
vt 0.202682 0.747883
vt 0.202682 0.545200
vt 0.202682 0.842885
vt 0.000000 0.545200
vt 0.202682 0.545200
vt 0.558871 0.548695
vt 0.685943 0.547960
vt 0.502536 0.548822
vt 0.655733 0.569658
vt 0.444894 0.702503
vt 0.716153 0.684765
vt 0.502536 0.545200
vt 0.685943 0.547960
vt 0.625523 0.547960
vt 0.414687 0.545206
vt 0.746145 0.672189
vt 0.444894 0.545200
vt 0.558871 0.712093
vt 0.589081 0.545200
vt 0.797656 0.547960
vt 0.297656 0.545200
vt 0.595313 0.547960
vt 0.000000 0.545200
vt 0.384479 0.747883
vt 0.000000 0.842885
vn -0.8517 0.0000 0.5241
vn -0.3764 -0.6958 -0.6117
vn 0.8517 0.0000 -0.5241
vn 0.3764 0.6958 0.6117
vn 0.3647 -0.7182 0.5926
vn -0.3647 0.7182 -0.5926
vn 0.9383 0.0000 0.3457
vn -0.2483 -0.6958 0.6739
vn -0.9383 0.0000 -0.3457
vn 0.2483 0.6958 -0.6739
vn 0.2406 -0.7182 -0.6529
vn -0.2406 0.7182 0.6529
vn 0.0325 -0.0000 -0.9995
vn 0.7178 -0.6958 0.0233
vn -0.0325 0.0000 0.9995
vn -0.7178 0.6958 -0.0233
vn -0.6954 -0.7182 -0.0226
vn 0.6954 0.7182 0.0226
vn 0.9944 -0.1057 0.0000
vn 0.0000 0.0000 1.0000
vn -0.9944 -0.1057 0.0000
vn 0.0000 0.0000 -1.0000
vn 0.0000 -1.0000 0.0000
vn 0.0000 1.0000 0.0000
usemtl マテリアル
s off
f 2/1/1 3/2/1 1/3/1
f 4/4/2 7/5/2 3/6/2
f 7/7/3 6/8/3 5/9/3
f 6/10/4 1/11/4 5/12/4
f 3/6/5 5/13/5 1/11/5
f 4/4/6 6/10/6 8/14/6
f 10/15/7 11/16/7 9/17/7
f 11/18/8 16/19/8 15/20/8
f 16/21/9 13/22/9 15/23/9
f 14/24/10 9/25/10 13/26/10
f 15/20/11 9/27/11 11/18/11
f 16/28/12 10/29/12 14/24/12
f 18/30/13 19/31/13 17/32/13
f 19/33/14 24/34/14 23/35/14
f 24/36/15 21/37/15 23/38/15
f 22/39/16 17/40/16 21/41/16
f 23/42/17 17/43/17 19/44/17
f 24/45/18 18/46/18 22/39/18
f 26/47/19 27/48/19 25/49/19
f 28/50/20 31/51/20 27/52/20
f 32/53/21 29/54/21 31/55/21
f 30/56/22 25/57/22 29/58/22
f 31/59/23 25/60/23 27/61/23
f 28/62/24 30/63/24 32/64/24
f 2/1/1 4/65/1 3/2/1
f 4/4/2 8/66/2 7/5/2
f 7/7/3 8/67/3 6/8/3
f 6/10/4 2/68/4 1/11/4
f 3/6/5 7/5/5 5/13/5
f 4/4/6 2/68/6 6/10/6
f 10/15/7 12/69/7 11/16/7
f 11/18/8 12/70/8 16/19/8
f 16/21/9 14/71/9 13/22/9
f 14/24/10 10/29/10 9/25/10
f 15/20/11 13/72/11 9/27/11
f 16/28/12 12/73/12 10/29/12
f 18/30/13 20/74/13 19/31/13
f 19/33/14 20/75/14 24/34/14
f 24/36/15 22/76/15 21/37/15
f 22/39/16 18/46/16 17/40/16
f 23/42/17 21/77/17 17/43/17
f 24/45/18 20/78/18 18/46/18
f 26/47/19 28/79/19 27/48/19
f 28/50/20 32/80/20 31/51/20
f 32/53/21 30/81/21 29/54/21
f 30/56/22 26/82/22 25/57/22
f 31/59/23 29/83/23 25/60/23
f 28/62/24 26/84/24 30/63/24
