# Blender 3.5.0
# www.blender.org
mtllib Enemy_R_Camera.mtl
o E_Camera_R
v 0.000746 -0.036005 0.641961
v -0.112103 -0.005767 0.641961
v -0.194714 0.076844 0.641961
v -0.224952 0.189693 0.641961
v -0.194714 0.302542 0.641961
v -0.112103 0.385153 0.641961
v 0.000746 0.415391 0.641961
v 0.113594 0.385153 0.641961
v 0.196205 0.302542 0.641961
v 0.226443 0.189693 0.641961
v 0.196205 0.076844 0.641961
v 0.113594 -0.005767 0.641961
v 0.000746 0.189693 0.007516
v 0.000746 -0.100858 0.588618
v -0.144530 -0.061931 0.588618
v -0.250879 0.044418 0.588618
v -0.289805 0.189693 0.588618
v -0.250879 0.334969 0.588618
v -0.144530 0.441318 0.588618
v 0.000746 0.480244 0.588618
v 0.146021 0.441318 0.588618
v 0.252370 0.334969 0.588618
v 0.291296 0.189693 0.588618
v 0.252370 0.044418 0.588618
v 0.146021 -0.061931 0.588618
v 0.000746 -0.069783 0.641961
v -0.128992 -0.035020 0.641961
v -0.223967 0.059955 0.641961
v -0.258730 0.189693 0.641961
v -0.223967 0.319431 0.641961
v -0.128992 0.414406 0.641961
v 0.000746 0.449169 0.641961
v 0.130483 0.414406 0.641961
v 0.225458 0.319431 0.641961
v 0.260221 0.189693 0.641961
v 0.225458 0.059955 0.641961
v 0.130483 -0.035020 0.641961
v 0.000746 -0.036005 0.641961
v -0.112103 -0.005767 0.641961
v -0.194714 0.076844 0.641961
v -0.224952 0.189693 0.641961
v -0.194714 0.302542 0.641961
v -0.112103 0.385153 0.641961
v 0.000746 0.415391 0.641961
v 0.113594 0.385153 0.641961
v 0.196205 0.302542 0.641961
v 0.226443 0.189693 0.641961
v 0.196205 0.076844 0.641961
v 0.113594 -0.005767 0.641961
v 0.000746 0.019010 0.653852
v -0.084596 0.041877 0.653852
v -0.147071 0.104351 0.653852
v -0.169938 0.189693 0.653852
v -0.147071 0.275035 0.653852
v -0.084596 0.337509 0.653852
v 0.000746 0.360377 0.653852
v 0.086087 0.337509 0.653852
v 0.148562 0.275035 0.653852
v 0.171429 0.189693 0.653852
v 0.148562 0.104351 0.653852
v 0.086087 0.041877 0.653852
v 0.117508 0.031970 0.229683
v 0.117508 0.351589 0.229683
v 0.143924 0.005554 0.009789
v 0.143924 0.378005 0.009789
v -0.118065 0.031970 0.229683
v -0.118065 0.351589 0.229683
v -0.144481 0.005554 0.009789
v -0.144481 0.378005 0.009789
v 0.143924 0.005554 0.152163
v 0.143924 0.378005 0.152163
v -0.144481 0.378005 0.152163
v -0.144481 0.005554 0.152163
v 0.000746 -0.036005 0.592705
v -0.112103 -0.005767 0.592705
v -0.194714 0.076844 0.592705
v -0.224952 0.189693 0.592705
v -0.194714 0.302542 0.592705
v -0.112103 0.385153 0.592705
v 0.000746 0.415391 0.592705
v 0.113594 0.385153 0.592705
v 0.196205 0.302542 0.592705
v 0.226443 0.189693 0.592705
v 0.196205 0.076844 0.592705
v 0.113594 -0.005767 0.592705
v -0.000798 0.377306 0.034622
v -0.000798 0.409006 0.034622
v -0.009906 0.377306 0.035519
v -0.009906 0.409006 0.035519
v -0.018665 0.377306 0.038176
v -0.018665 0.409006 0.038176
v -0.026736 0.377306 0.042490
v -0.026736 0.409006 0.042490
v -0.033811 0.377306 0.048296
v -0.033811 0.409006 0.048296
v -0.039617 0.377306 0.055371
v -0.039617 0.409006 0.055371
v -0.043931 0.377306 0.063443
v -0.043931 0.409006 0.063443
v -0.046588 0.377306 0.072201
v -0.046588 0.409006 0.072201
v -0.047485 0.377306 0.081309
v -0.047485 0.409006 0.081309
v -0.046588 0.377306 0.090418
v -0.046588 0.409006 0.090418
v -0.043931 0.377306 0.099176
v -0.043931 0.409006 0.099176
v -0.039617 0.377306 0.107247
v -0.039617 0.409006 0.107247
v -0.033811 0.377306 0.114322
v -0.033811 0.409006 0.114322
v -0.026736 0.377306 0.120128
v -0.026736 0.409006 0.120128
v -0.018665 0.377306 0.124443
v -0.018665 0.409006 0.124443
v -0.009906 0.377306 0.127100
v -0.009906 0.409006 0.127100
v -0.000798 0.377306 0.127997
v -0.000798 0.409006 0.127997
v 0.008310 0.377306 0.127100
v 0.008310 0.409006 0.127100
v 0.017069 0.377306 0.124443
v 0.017069 0.409006 0.124443
v 0.025140 0.377306 0.120128
v 0.025140 0.409006 0.120128
v 0.032215 0.377306 0.114322
v 0.032215 0.409006 0.114322
v 0.038021 0.377306 0.107247
v 0.038021 0.409006 0.107247
v 0.042336 0.377306 0.099176
v 0.042336 0.409006 0.099176
v 0.044992 0.377306 0.090418
v 0.044992 0.409006 0.090418
v 0.045889 0.377306 0.081309
v 0.045889 0.409006 0.081309
v 0.044992 0.377306 0.072201
v 0.044992 0.409006 0.072201
v 0.042336 0.377306 0.063443
v 0.042336 0.409006 0.063443
v 0.038021 0.377306 0.055371
v 0.038021 0.409006 0.055371
v 0.032215 0.377306 0.048296
v 0.032215 0.409006 0.048296
v 0.025140 0.377306 0.042490
v 0.025140 0.409006 0.042490
v 0.017069 0.377306 0.038176
v 0.017069 0.409006 0.038176
v 0.008310 0.377306 0.035519
v 0.008310 0.409006 0.035519
vn -0.2331 -0.8698 -0.4349
vn -0.6367 -0.6367 -0.4349
vn -0.8698 -0.2331 -0.4349
vn -0.8698 0.2331 -0.4349
vn -0.6367 0.6367 -0.4349
vn -0.2331 0.8698 -0.4349
vn 0.2331 0.8698 -0.4349
vn 0.6367 0.6367 -0.4349
vn 0.8698 0.2331 -0.4349
vn 0.8698 -0.2331 -0.4349
vn -0.0000 1.0000 -0.0000
vn 0.6367 -0.6367 -0.4349
vn 0.2331 -0.8698 -0.4349
vn -0.2256 -0.8418 0.4904
vn -0.6162 -0.6162 0.4904
vn -0.8418 -0.2256 0.4904
vn -0.8418 0.2256 0.4904
vn -0.6162 0.6162 0.4904
vn -0.2256 0.8418 0.4904
vn 0.2256 0.8418 0.4904
vn 0.6162 0.6162 0.4904
vn 0.8418 0.2256 0.4904
vn 0.8418 -0.2256 0.4904
vn 0.6162 -0.6162 0.4904
vn 0.2256 -0.8418 0.4904
vn -0.0000 -0.0000 1.0000
vn 0.9659 -0.2588 -0.0000
vn -0.7071 0.7071 -0.0000
vn 0.2588 0.9659 -0.0000
vn -0.7071 -0.7071 -0.0000
vn 0.7071 -0.7071 -0.0000
vn -0.2588 0.9659 -0.0000
vn 0.7071 0.7071 -0.0000
vn -0.9659 -0.2588 -0.0000
vn 0.2588 -0.9659 -0.0000
vn 0.9659 0.2588 -0.0000
vn -0.9659 0.2588 -0.0000
vn -0.2588 -0.9659 -0.0000
vn 1.0000 -0.0000 -0.0000
vn -0.0000 -0.0000 -1.0000
vn -1.0000 -0.0000 -0.0000
vn -0.0000 -1.0000 -0.0000
vn 0.9466 -0.0000 0.3226
vn -0.9466 -0.0000 0.3226
vn -0.0000 -0.9466 0.3226
vn -0.0000 0.9466 0.3225
vn -0.1954 -0.7291 0.6560
vn -0.5337 -0.5337 0.6560
vn -0.7291 -0.1954 0.6560
vn -0.7291 0.1954 0.6560
vn -0.5337 0.5337 0.6560
vn -0.1954 0.7291 0.6560
vn 0.1954 0.7291 0.6560
vn 0.5337 0.5337 0.6560
vn 0.7291 0.1954 0.6560
vn 0.7291 -0.1954 0.6560
vn 0.5337 -0.5337 0.6560
vn 0.1954 -0.7291 0.6560
vn -0.0980 -0.0000 -0.9952
vn -0.2903 -0.0000 -0.9569
vn -0.4714 -0.0000 -0.8819
vn -0.6344 -0.0000 -0.7730
vn -0.7730 -0.0000 -0.6344
vn -0.8819 -0.0000 -0.4714
vn -0.9569 -0.0000 -0.2903
vn -0.9952 -0.0000 -0.0980
vn -0.9952 -0.0000 0.0980
vn -0.9569 -0.0000 0.2903
vn -0.8819 -0.0000 0.4714
vn -0.7730 -0.0000 0.6344
vn -0.6344 -0.0000 0.7730
vn -0.4714 -0.0000 0.8819
vn -0.2903 -0.0000 0.9569
vn -0.0980 -0.0000 0.9952
vn 0.0980 -0.0000 0.9952
vn 0.2903 -0.0000 0.9569
vn 0.4714 -0.0000 0.8819
vn 0.6344 -0.0000 0.7730
vn 0.7730 -0.0000 0.6344
vn 0.8819 -0.0000 0.4714
vn 0.9569 -0.0000 0.2903
vn 0.9952 -0.0000 0.0980
vn 0.9952 -0.0000 -0.0980
vn 0.9569 -0.0000 -0.2903
vn 0.8819 -0.0000 -0.4714
vn 0.7730 -0.0000 -0.6344
vn 0.6344 -0.0000 -0.7730
vn 0.4714 -0.0000 -0.8819
vn 0.2903 -0.0000 -0.9569
vn 0.0980 -0.0000 -0.9952
vn -0.9466 -0.0000 0.3225
vt 0.414870 0.020730
vt 0.292740 0.422047
vt 0.350585 0.057845
vt 0.292740 0.422047
vt 0.313470 0.122130
vt 0.292740 0.422047
vt 0.313470 0.196359
vt 0.292740 0.422047
vt 0.292740 0.422047
vt 0.350585 0.260644
vt 0.414870 0.297759
vt 0.292740 0.422047
vt 0.489099 0.297759
vt 0.292740 0.422047
vt 0.553384 0.260644
vt 0.292740 0.422047
vt 0.590499 0.196359
vt 0.292740 0.422047
vt 0.590499 0.122130
vt 0.292740 0.422047
vt 0.553384 0.057845
vt 0.292740 0.422047
vt 0.489099 0.020730
vt 0.292740 0.422047
vt 0.238133 0.422048
vt 0.775059 0.318489
vt 0.532900 0.318489
vt 0.292740 0.422047
vt 0.148306 0.093295
vt 0.238133 0.831038
vt 0.232294 0.054986
vt 0.292740 0.024581
vt 0.173365 0.810685
vt 0.087464 0.776823
vt 0.003448 0.738523
vt 0.775059 0.708553
vt 0.704140 0.677458
vt 0.615924 0.642068
vt 0.534048 0.611867
vt 0.532900 0.713779
vt 0.465354 0.683976
vt 0.378342 0.647709
vt 0.295179 0.614696
vt 0.000000 0.153193
vt 0.063281 0.129241
vt 0.134278 0.061364
vt 0.409315 0.000000
vt 0.209283 0.027153
vt 0.335409 0.042669
vt 0.263264 0.000000
vt 0.151745 0.836340
vt 0.292740 0.116575
vt 0.075031 0.806099
vt 0.292740 0.201914
vt 0.748134 0.734994
vt 0.000000 0.771896
vt 0.335410 0.275819
vt 0.684800 0.707225
vt 0.409315 0.318489
vt 0.606018 0.675620
vt 0.494654 0.318489
vt 0.532900 0.648648
vt 0.505037 0.739347
vt 0.568559 0.275819
vt 0.444714 0.712732
vt 0.611229 0.201914
vt 0.367009 0.680344
vt 0.611229 0.116575
vt 0.292740 0.650861
vt 0.001833 0.114857
vt 0.568559 0.042669
vt 0.058346 0.093466
vt 0.494654 0.000000
vt 0.292740 0.422047
vt 0.271293 0.738187
vt 0.292740 0.422047
vt 0.269387 0.670424
vt 0.701592 0.935052
vt 0.702774 0.877715
vt 0.292740 0.422047
vt 0.292740 0.422047
vt 0.702774 0.804488
vt 0.701592 0.734994
vt 0.241872 0.422048
vt 0.292740 0.422047
vt 0.292740 0.422047
vt 0.239135 0.474536
vt 0.292740 0.422047
vt 0.238133 0.546236
vt 0.292740 0.422047
vt 0.239135 0.617936
vt 0.948476 0.934337
vt 0.292740 0.422047
vt 0.241872 0.670424
vt 0.292740 0.422047
vt 0.946603 0.862637
vt 0.269387 0.872143
vt 0.292740 0.422047
vt 0.948476 0.790936
vt 0.292740 0.422047
vt 0.271293 0.812021
vt 0.743395 0.806694
vt 0.735417 0.232635
vt 0.789640 0.218106
vt 0.744153 0.860917
vt 0.916648 0.681055
vt 0.829334 0.178412
vt 0.843863 0.124188
vt 0.915232 0.626832
vt 0.916648 0.572608
vt 0.829334 0.069965
vt 0.789640 0.030271
vt 0.483774 0.752160
vt 0.483022 0.807992
vt 0.735417 0.015742
vt 0.681194 0.030271
vt 0.483774 0.859252
vt 0.524168 0.753929
vt 0.641500 0.069965
vt 0.626971 0.124188
vt 0.523709 0.809304
vt 0.524168 0.861864
vt 0.641500 0.178412
vt 0.681194 0.218106
vt 0.744153 0.752471
vt 0.442415 0.739347
vt 0.775059 0.573311
vt 0.775059 0.957395
vt 0.775059 0.775430
vt 1.000000 0.162878
vt 0.442415 0.942422
vt 0.775059 0.318489
vt 0.915457 0.974179
vt 0.915232 0.555408
vt 0.915232 0.790936
vt 0.775059 0.555131
vt 0.859606 0.180954
vt 0.292740 0.739347
vt 0.775059 0.807720
vt 0.670312 0.751778
vt 0.670312 0.954853
vt 0.292740 0.942422
vt 1.000000 0.015072
vt 0.532900 0.734994
vt 0.958302 0.318489
vt 0.915457 0.790936
vt 0.859606 0.000000
vt 0.958302 0.555131
vt 0.532900 0.971636
vt 0.824818 0.555131
vt 0.825121 0.974179
vt 0.824818 0.790659
vt 0.949944 0.181692
vt 0.622929 0.971636
vt 0.949944 0.000737
vt 0.622929 0.734994
vt 0.825121 0.790936
vt 0.240040 0.738353
vt 0.702774 0.806694
vt 0.238133 0.670590
vt 0.670312 0.935216
vt 0.703776 0.878395
vt 0.807117 0.248377
vt 0.671495 0.877878
vt 0.859606 0.195889
vt 0.952364 0.698532
vt 0.671495 0.804652
vt 0.950492 0.626832
vt 0.670312 0.735157
vt 0.273125 0.422048
vt 0.952364 0.555131
vt 0.859606 0.052488
vt 0.270388 0.474536
vt 0.807117 0.000000
vt 0.443409 0.739347
vt 0.269386 0.546236
vt 0.442415 0.813175
vt 0.270388 0.617936
vt 0.443409 0.880957
vt 0.663717 0.000000
vt 0.273125 0.670424
vt 0.917329 0.934337
vt 0.611229 0.052488
vt 0.484381 0.739347
vt 0.915457 0.862637
vt 0.483774 0.812571
vt 0.238133 0.872309
vt 0.917329 0.790936
vt 0.484381 0.882073
vt 0.611229 0.195889
vt 0.240040 0.812187
vt 0.663717 0.248377
vt 0.703776 0.734994
vt 0.292182 0.733391
vt 0.611229 0.274998
vt 0.707796 0.306281
vt 0.272041 0.733391
vt 0.292182 0.739178
vt 0.611229 0.280813
vt 0.272041 0.739178
vt 0.702171 0.307418
vt 0.292182 0.744743
vt 0.612362 0.286516
vt 0.272041 0.744743
vt 0.696436 0.307421
vt 0.292182 0.749871
vt 0.614584 0.291888
vt 0.272041 0.749871
vt 0.690812 0.306290
vt 0.768700 0.248377
vt 0.292182 0.754366
vt 0.617810 0.296722
vt 0.272041 0.754366
vt 0.748558 0.248377
vt 0.685514 0.304067
vt 0.768700 0.253210
vt 0.621917 0.300833
vt 0.748558 0.253210
vt 0.680745 0.300839
vt 0.768700 0.258581
vt 0.626745 0.304062
vt 0.748558 0.258581
vt 0.676690 0.296729
vt 0.768700 0.264284
vt 0.632110 0.306286
vt 0.748558 0.264284
vt 0.673504 0.291896
vt 0.768700 0.270099
vt 0.637806 0.307419
vt 0.748558 0.270099
vt 0.671309 0.286525
vt 0.768700 0.275803
vt 0.643613 0.307418
vt 0.748558 0.275803
vt 0.670191 0.280822
vt 0.768700 0.281177
vt 0.649309 0.306282
vt 0.748558 0.281177
vt 0.670191 0.275007
vt 0.768700 0.286014
vt 0.654674 0.304055
vt 0.748558 0.286014
vt 0.671309 0.269303
vt 0.748558 0.248377
vt 0.768700 0.290128
vt 0.659503 0.300823
vt 0.748558 0.290128
vt 0.728417 0.248377
vt 0.673504 0.263930
vt 0.748558 0.252872
vt 0.663609 0.296710
vt 0.728417 0.252872
vt 0.676690 0.259093
vt 0.748558 0.258001
vt 0.666835 0.291874
vt 0.728417 0.258001
vt 0.680745 0.254979
vt 0.748558 0.263565
vt 0.669058 0.286501
vt 0.728417 0.263565
vt 0.685513 0.251746
vt 0.748558 0.269352
vt 0.670191 0.280798
vt 0.728417 0.269352
vt 0.690812 0.249518
vt 0.748558 0.275139
vt 0.670191 0.274983
vt 0.728417 0.275139
vt 0.696436 0.248380
vt 0.748558 0.280704
vt 0.669058 0.269280
vt 0.728417 0.280704
vt 0.702171 0.248377
vt 0.748558 0.285833
vt 0.666835 0.263908
vt 0.728417 0.285833
vt 0.707796 0.249508
vt 0.272136 0.712416
vt 0.748558 0.290328
vt 0.663609 0.259074
vt 0.728417 0.290328
vt 0.292182 0.712354
vt 0.713094 0.251731
vt 0.271778 0.707807
vt 0.659503 0.254963
vt 0.291825 0.707746
vt 0.717862 0.254959
vt 0.271512 0.702596
vt 0.654674 0.251734
vt 0.291559 0.702534
vt 0.721917 0.259069
vt 0.271349 0.696981
vt 0.649309 0.249510
vt 0.291395 0.696920
vt 0.725103 0.263902
vt 0.271293 0.691179
vt 0.643613 0.248377
vt 0.291340 0.691117
vt 0.727298 0.269273
vt 0.271349 0.685412
vt 0.637806 0.248379
vt 0.291395 0.685351
vt 0.728417 0.274976
vt 0.271512 0.679903
vt 0.632111 0.249514
vt 0.291559 0.679842
vt 0.728417 0.280791
vt 0.271778 0.674863
vt 0.626745 0.251741
vt 0.291825 0.674802
vt 0.727298 0.286495
vt 0.292182 0.712416
vt 0.272136 0.670486
vt 0.621917 0.254973
vt 0.292182 0.670424
vt 0.272041 0.712416
vt 0.725103 0.291869
vt 0.292182 0.716911
vt 0.617810 0.259086
vt 0.272041 0.716911
vt 0.721918 0.296705
vt 0.292182 0.722039
vt 0.614584 0.263922
vt 0.717862 0.300819
vt 0.272041 0.722039
vt 0.292182 0.727604
vt 0.612362 0.269295
vt 0.713094 0.304052
vt 0.272041 0.727604
s 0
usemtl Camera
f 14/29/1 15/31/1 13/28/1
f 15/30/2 16/33/2 13/25/2
f 16/33/3 17/34/3 13/25/3
f 17/34/4 18/35/4 13/25/4
f 18/36/5 19/37/5 13/26/5
f 19/37/6 20/38/6 13/26/6
f 20/38/7 21/39/7 13/26/7
f 21/40/8 22/41/8 13/27/8
f 22/41/9 23/42/9 13/27/9
f 23/42/10 24/43/10 13/27/10
f 41/81/11 5/9/11 4/8/11
f 24/44/12 25/45/12 13/28/12
f 25/45/13 14/29/13 13/28/13
f 27/48/14 14/29/14 26/46/14
f 16/32/15 27/48/15 28/50/15
f 29/53/16 16/33/16 28/51/16
f 30/56/17 17/34/17 29/53/17
f 31/58/18 18/36/18 30/55/18
f 32/60/19 19/37/19 31/58/19
f 33/62/20 20/38/20 32/60/20
f 22/41/21 33/63/21 34/65/21
f 23/42/22 34/65/22 35/67/22
f 24/43/23 35/67/23 36/69/23
f 37/72/24 24/44/24 36/70/24
f 14/29/25 37/72/25 26/46/25
f 2/3/26 26/47/26 1/1/26
f 28/52/26 2/3/26 3/5/26
f 29/54/26 3/5/26 4/7/26
f 30/57/26 4/7/26 5/10/26
f 31/59/26 5/10/26 6/11/26
f 7/13/26 31/59/26 6/11/26
f 8/15/26 32/61/26 7/13/26
f 9/17/26 33/64/26 8/15/26
f 10/19/26 34/66/26 9/17/26
f 36/71/26 10/19/26 11/21/26
f 12/23/26 36/71/26 11/21/26
f 26/47/26 12/23/26 1/1/26
f 41/82/27 78/169/27 42/83/27
f 48/98/11 12/24/11 11/22/11
f 38/74/11 2/4/11 1/2/11
f 45/90/11 9/18/11 8/16/11
f 42/85/11 6/12/11 5/9/11
f 49/100/11 1/2/11 12/24/11
f 39/76/11 3/6/11 2/4/11
f 46/93/11 10/20/11 9/18/11
f 43/86/11 7/14/11 6/12/11
f 40/80/11 4/8/11 3/6/11
f 47/95/11 11/22/11 10/20/11
f 44/88/11 8/16/11 7/14/11
f 53/108/26 51/104/26 59/120/26
f 84/187/28 49/101/28 48/97/28
f 74/158/29 39/77/29 38/75/29
f 81/178/30 46/94/30 45/91/30
f 78/170/31 43/87/31 42/84/31
f 85/191/32 38/75/32 49/101/32
f 39/78/33 76/164/33 40/79/33
f 82/182/34 47/96/34 46/92/34
f 79/173/35 44/89/35 43/87/35
f 76/164/36 41/82/36 40/79/36
f 83/185/37 48/99/37 47/96/37
f 80/176/38 45/91/38 44/89/38
f 64/134/39 71/152/39 70/150/39
f 68/145/40 65/136/40 64/132/40
f 73/156/41 69/149/41 68/144/41
f 62/126/26 67/142/26 66/138/26
f 70/151/42 68/146/42 64/133/42
f 72/155/11 65/137/11 69/147/11
f 62/127/43 71/152/43 63/129/43
f 72/154/44 66/140/44 67/141/44
f 73/157/45 62/128/45 66/139/45
f 71/153/46 67/143/46 63/130/46
f 51/105/47 74/159/47 50/102/47
f 52/107/48 75/163/48 51/104/48
f 53/109/49 76/166/49 52/106/49
f 78/171/50 53/109/50 54/110/50
f 79/174/51 54/111/51 55/112/51
f 80/177/52 55/113/52 56/114/52
f 57/117/53 80/177/53 56/114/53
f 58/119/54 81/180/54 57/116/54
f 59/121/55 82/184/55 58/118/55
f 84/189/56 59/121/56 60/122/56
f 61/124/57 84/190/57 60/123/57
f 74/159/58 61/125/58 50/102/58
f 88/198/59 87/197/59 86/194/59
f 90/202/60 89/200/60 88/198/60
f 92/206/61 91/204/61 90/202/61
f 94/211/62 93/208/62 92/206/62
f 96/216/63 95/214/63 94/210/63
f 98/220/64 97/218/64 96/216/64
f 100/224/65 99/222/65 98/220/65
f 102/228/66 101/226/66 100/224/66
f 104/232/67 103/230/67 102/228/67
f 106/236/68 105/234/68 104/232/68
f 108/240/69 107/238/69 106/236/69
f 110/245/70 109/242/70 108/240/70
f 112/250/71 111/248/71 110/244/71
f 114/254/72 113/252/72 112/250/72
f 116/258/73 115/256/73 114/254/73
f 118/262/74 117/260/74 116/258/74
f 120/266/75 119/264/75 118/262/75
f 122/270/76 121/268/76 120/266/76
f 124/274/77 123/272/77 122/270/77
f 126/279/78 125/276/78 124/274/78
f 128/284/79 127/282/79 126/278/79
f 130/288/80 129/286/80 128/284/80
f 132/292/81 131/290/81 130/288/81
f 134/296/82 133/294/82 132/292/82
f 136/300/83 135/298/83 134/296/83
f 138/304/84 137/302/84 136/300/84
f 140/308/85 139/306/85 138/304/85
f 142/313/86 141/310/86 140/308/86
f 144/318/87 143/316/87 142/312/87
f 146/322/88 145/320/88 144/318/88
f 87/196/11 103/231/11 119/265/11
f 148/326/89 147/325/89 146/322/89
f 86/194/90 149/329/90 148/326/90
f 120/267/42 104/233/42 88/199/42
f 41/81/11 42/85/11 5/9/11
f 27/48/14 15/31/14 14/29/14
f 16/32/15 15/31/15 27/48/15
f 29/53/16 17/34/16 16/33/16
f 30/56/17 18/35/17 17/34/17
f 31/58/18 19/37/18 18/36/18
f 32/60/19 20/38/19 19/37/19
f 33/62/20 21/39/20 20/38/20
f 22/41/21 21/40/21 33/63/21
f 23/42/22 22/41/22 34/65/22
f 24/43/23 23/42/23 35/67/23
f 37/72/24 25/45/24 24/44/24
f 14/29/25 25/45/25 37/72/25
f 2/3/26 27/49/26 26/47/26
f 28/52/26 27/49/26 2/3/26
f 29/54/26 28/52/26 3/5/26
f 30/57/26 29/54/26 4/7/26
f 31/59/26 30/57/26 5/10/26
f 7/13/26 32/61/26 31/59/26
f 8/15/26 33/64/26 32/61/26
f 9/17/26 34/66/26 33/64/26
f 10/19/26 35/68/26 34/66/26
f 36/71/26 35/68/26 10/19/26
f 12/23/26 37/73/26 36/71/26
f 26/47/26 37/73/26 12/23/26
f 41/82/27 77/167/27 78/169/27
f 48/98/11 49/100/11 12/24/11
f 38/74/11 39/76/11 2/4/11
f 45/90/11 46/93/11 9/18/11
f 42/85/11 43/86/11 6/12/11
f 49/100/11 38/74/11 1/2/11
f 39/76/11 40/80/11 3/6/11
f 46/93/11 47/95/11 10/20/11
f 43/86/11 44/88/11 7/14/11
f 40/80/11 41/81/11 4/8/11
f 47/95/11 48/98/11 11/22/11
f 44/88/11 45/90/11 8/16/11
f 51/104/26 50/103/26 59/120/26
f 50/103/26 61/124/26 59/120/26
f 61/124/26 60/123/26 59/120/26
f 59/120/26 58/119/26 57/116/26
f 57/116/26 56/115/26 59/120/26
f 56/115/26 55/112/26 59/120/26
f 55/112/26 54/111/26 53/108/26
f 53/108/26 52/107/26 51/104/26
f 55/112/26 53/108/26 59/120/26
f 84/187/28 85/191/28 49/101/28
f 74/158/29 75/160/29 39/77/29
f 81/178/30 82/181/30 46/94/30
f 78/170/31 79/173/31 43/87/31
f 85/191/32 74/158/32 38/75/32
f 39/78/33 75/161/33 76/164/33
f 82/182/34 83/185/34 47/96/34
f 79/173/35 80/176/35 44/89/35
f 76/164/36 77/167/36 41/82/36
f 83/185/37 84/188/37 48/99/37
f 80/176/38 81/178/38 45/91/38
f 64/134/39 65/135/39 71/152/39
f 68/145/40 69/148/40 65/136/40
f 73/156/41 72/154/41 69/149/41
f 62/126/26 63/131/26 67/142/26
f 70/151/42 73/157/42 68/146/42
f 72/155/11 71/153/11 65/137/11
f 62/127/43 70/150/43 71/152/43
f 72/154/91 73/156/91 66/140/91
f 73/157/45 70/151/45 62/128/45
f 71/153/46 72/155/46 67/143/46
f 51/105/47 75/162/47 74/159/47
f 52/107/48 76/165/48 75/163/48
f 53/109/49 77/168/49 76/166/49
f 78/171/50 77/168/50 53/109/50
f 79/174/51 78/172/51 54/111/51
f 80/177/52 79/175/52 55/113/52
f 57/117/53 81/179/53 80/177/53
f 58/119/54 82/183/54 81/180/54
f 59/121/55 83/186/55 82/184/55
f 84/189/56 83/186/56 59/121/56
f 61/124/57 85/192/57 84/190/57
f 74/159/58 85/193/58 61/125/58
f 88/198/59 89/200/59 87/197/59
f 90/202/60 91/204/60 89/200/60
f 92/206/61 93/208/61 91/204/61
f 94/211/62 95/213/62 93/208/62
f 96/216/63 97/218/63 95/214/63
f 98/220/64 99/222/64 97/218/64
f 100/224/65 101/226/65 99/222/65
f 102/228/66 103/230/66 101/226/66
f 104/232/67 105/234/67 103/230/67
f 106/236/68 107/238/68 105/234/68
f 108/240/69 109/242/69 107/238/69
f 110/245/70 111/247/70 109/242/70
f 112/250/71 113/252/71 111/248/71
f 114/254/72 115/256/72 113/252/72
f 116/258/73 117/260/73 115/256/73
f 118/262/74 119/264/74 117/260/74
f 120/266/75 121/268/75 119/264/75
f 122/270/76 123/272/76 121/268/76
f 124/274/77 125/276/77 123/272/77
f 126/279/78 127/281/78 125/276/78
f 128/284/79 129/286/79 127/282/79
f 130/288/80 131/290/80 129/286/80
f 132/292/81 133/294/81 131/290/81
f 134/296/82 135/298/82 133/294/82
f 136/300/83 137/302/83 135/298/83
f 138/304/84 139/306/84 137/302/84
f 140/308/85 141/310/85 139/306/85
f 142/313/86 143/315/86 141/310/86
f 144/318/87 145/320/87 143/316/87
f 146/322/88 147/325/88 145/320/88
f 87/196/11 89/201/11 95/215/11
f 89/201/11 91/205/11 95/215/11
f 91/205/11 93/209/11 95/215/11
f 95/215/11 97/219/11 99/223/11
f 99/223/11 101/227/11 103/231/11
f 103/231/11 105/235/11 107/239/11
f 107/239/11 109/243/11 111/249/11
f 111/249/11 113/253/11 115/257/11
f 115/257/11 117/261/11 111/249/11
f 117/261/11 119/265/11 111/249/11
f 119/265/11 121/269/11 127/283/11
f 121/269/11 123/273/11 127/283/11
f 123/273/11 125/277/11 127/283/11
f 127/283/11 129/287/11 131/291/11
f 131/291/11 133/295/11 135/299/11
f 135/299/11 137/303/11 139/307/11
f 139/307/11 141/311/11 143/317/11
f 143/317/11 145/321/11 147/324/11
f 147/324/11 149/328/11 143/317/11
f 149/328/11 87/196/11 143/317/11
f 95/215/11 99/223/11 87/196/11
f 99/223/11 103/231/11 87/196/11
f 103/231/11 107/239/11 119/265/11
f 107/239/11 111/249/11 119/265/11
f 127/283/11 131/291/11 135/299/11
f 135/299/11 139/307/11 143/317/11
f 119/265/11 127/283/11 135/299/11
f 135/299/11 143/317/11 119/265/11
f 143/317/11 87/196/11 119/265/11
f 148/326/89 149/329/89 147/325/89
f 86/194/90 87/197/90 149/329/90
f 88/199/42 86/195/42 148/327/42
f 148/327/42 146/323/42 144/319/42
f 144/319/42 142/314/42 140/309/42
f 140/309/42 138/305/42 144/319/42
f 138/305/42 136/301/42 144/319/42
f 136/301/42 134/297/42 128/285/42
f 134/297/42 132/293/42 128/285/42
f 132/293/42 130/289/42 128/285/42
f 128/285/42 126/280/42 120/267/42
f 126/280/42 124/275/42 120/267/42
f 124/275/42 122/271/42 120/267/42
f 120/267/42 118/263/42 116/259/42
f 116/259/42 114/255/42 112/251/42
f 112/251/42 110/246/42 108/241/42
f 108/241/42 106/237/42 104/233/42
f 104/233/42 102/229/42 100/225/42
f 100/225/42 98/221/42 104/233/42
f 98/221/42 96/217/42 104/233/42
f 96/217/42 94/212/42 92/207/42
f 92/207/42 90/203/42 88/199/42
f 88/199/42 148/327/42 136/301/42
f 148/327/42 144/319/42 136/301/42
f 120/267/42 116/259/42 112/251/42
f 112/251/42 108/241/42 120/267/42
f 108/241/42 104/233/42 120/267/42
f 96/217/42 92/207/42 88/199/42
f 136/301/42 128/285/42 88/199/42
f 128/285/42 120/267/42 88/199/42
f 104/233/42 96/217/42 88/199/42
