# Blender 3.5.0
# www.blender.org
mtllib MonsterTire.mtl
o M_Tire_R
v -1.301156 0.649194 0.650000
v -1.106156 0.649194 0.650000
v -1.301156 0.189575 0.459619
v -1.106156 0.189575 0.459619
v -1.301156 -0.000806 0.000000
v -1.106156 -0.000806 0.000000
v -1.301156 0.189575 -0.459619
v -1.106156 0.189575 -0.459619
v -1.301156 0.649194 -0.650000
v -1.106156 0.649194 -0.650000
v -1.301156 1.108814 -0.459619
v -1.106156 1.108814 -0.459619
v -1.301156 1.299194 0.000000
v -1.106156 1.299194 0.000000
v -1.301156 1.108814 0.459619
v -1.106156 1.108814 0.459619
v -1.388502 0.556219 -0.100000
v -1.388502 0.756219 -0.100000
v -1.388502 0.556219 0.100000
v -1.388502 0.756219 0.100000
v -0.888502 0.556219 -0.100000
v -0.888502 0.756219 -0.100000
v -0.888502 0.556219 0.100000
v -0.888502 0.756219 0.100000
vn -0.0000 -0.3827 0.9239
vn -0.0000 -0.9239 0.3827
vn -0.0000 -0.9239 -0.3827
vn -0.0000 -0.3827 -0.9239
vn -0.0000 0.3827 -0.9239
vn -0.0000 0.9239 -0.3827
vn 1.0000 -0.0000 -0.0000
vn -0.0000 0.9239 0.3827
vn -0.0000 0.3827 0.9239
vn -1.0000 -0.0000 -0.0000
vn -0.0000 -0.0000 1.0000
vn -0.0000 -0.0000 -1.0000
vn -0.0000 -1.0000 -0.0000
vn -0.0000 1.0000 -0.0000
vt 0.662359 0.191342
vt 0.353553 0.000000
vt 0.146447 1.000000
vt 0.743538 0.191342
vt 0.662359 0.000000
vt 0.581179 0.382683
vt 0.146447 0.000000
vt 0.500000 0.382683
vt 0.743538 0.000000
vt 0.000000 0.853553
vt 0.581179 0.574025
vt 0.000000 0.146447
vt 0.500000 0.574025
vt 0.000000 0.646447
vt 0.662359 0.000000
vt 0.581179 0.765367
vt 0.000000 0.353553
vt 0.500000 0.765367
vt 0.581179 0.000000
vt 0.146447 0.500000
vt 0.662359 0.191342
vt 0.146447 0.500000
vt 0.581179 0.191342
vt 0.353553 0.500000
vt 0.662359 0.382683
vt 0.500000 0.382683
vt 0.353553 0.500000
vt 0.581179 0.382683
vt 0.500000 0.646447
vt 0.500000 0.191342
vt 0.500000 0.353553
vt 0.500000 0.853553
vt 0.581179 0.191342
vt 0.500000 0.000000
vt 0.662359 0.382683
vt 0.500000 0.146447
vt 0.743538 0.382683
vt 0.353553 1.000000
vt 0.581179 0.000000
vt 0.831900 0.083261
vt 0.958528 0.590836
vt 0.792006 0.798988
vt 0.831900 0.166522
vt 0.875267 0.590836
vt 0.875267 0.382683
vt 0.875267 0.798988
vt 0.915161 0.083261
vt 0.958528 0.590836
vt 0.915160 0.166522
vt 0.792006 0.382683
vt 0.958528 0.382683
vt 0.915160 0.000000
vt 0.792006 0.590836
vt 0.915160 0.083261
vt 0.875267 0.382683
vt 0.875267 0.798988
vt 0.831900 0.000000
vt 0.875267 0.590836
vt 0.792006 0.590836
vt 0.831900 0.083261
vt 0.958528 0.798988
s 0
usemtl マテリアル.001
f 3/5/1 2/4/1 1/1/1
f 3/6/2 6/13/2 4/8/2
f 7/16/3 6/13/3 5/11/3
f 9/21/4 8/19/4 7/15/4
f 11/25/5 10/23/5 9/21/5
f 11/26/6 14/33/6 12/28/6
f 10/24/7 14/32/7 2/3/7
f 15/34/8 14/33/8 13/30/8
f 15/35/9 2/4/9 16/37/9
f 11/27/10 7/17/10 3/7/10
f 19/47/10 18/43/10 17/40/10
f 23/58/11 20/50/11 19/45/11
f 21/52/7 24/60/7 23/57/7
f 17/41/12 22/55/12 21/51/12
f 17/42/13 23/58/13 19/46/13
f 24/61/14 18/44/14 20/48/14
f 3/5/1 4/9/1 2/4/1
f 3/6/2 5/11/2 6/13/2
f 7/16/3 8/18/3 6/13/3
f 9/21/4 10/23/4 8/19/4
f 11/25/5 12/28/5 10/23/5
f 11/26/6 13/30/6 14/33/6
f 2/3/7 4/10/7 6/14/7
f 6/14/7 8/20/7 10/24/7
f 10/24/7 12/29/7 14/32/7
f 14/32/7 16/38/7 2/3/7
f 2/3/7 6/14/7 10/24/7
f 15/34/8 16/39/8 14/33/8
f 15/35/9 1/1/9 2/4/9
f 3/7/10 1/2/10 15/36/10
f 15/36/10 13/31/10 11/27/10
f 11/27/10 9/22/10 7/17/10
f 7/17/10 5/12/10 3/7/10
f 3/7/10 15/36/10 11/27/10
f 19/47/10 20/49/10 18/43/10
f 23/58/11 24/59/11 20/50/11
f 21/52/7 22/54/7 24/60/7
f 17/41/12 18/44/12 22/55/12
f 17/42/13 21/53/13 23/58/13
f 24/61/14 22/56/14 18/44/14
