# Blender 3.5.0
# www.blender.org
mtllib ClearGage.mtl
o 円
v -0.000000 1.000000 -0.000000
v 0.195090 0.980785 -0.000000
v 0.382683 0.923880 -0.000000
v 0.555570 0.831470 -0.000000
v 0.707107 0.707107 -0.000000
v 0.831470 0.555570 -0.000000
v 0.923880 0.382683 -0.000000
v 0.980785 0.195090 -0.000000
v 1.000000 0.000000 -0.000000
v 0.980785 -0.195090 -0.000000
v 0.923880 -0.382683 -0.000000
v 0.831470 -0.555570 -0.000000
v 0.707107 -0.707107 -0.000000
v 0.555570 -0.831470 -0.000000
v 0.382683 -0.923880 0.000000
v 0.195090 -0.980785 0.000000
v -0.000000 -1.000000 0.000000
v -0.195090 -0.980785 0.000000
v -0.382683 -0.923880 0.000000
v -0.555570 -0.831470 0.000000
v -0.707107 -0.707107 0.000000
v -0.831470 -0.555570 0.000000
v -0.923880 -0.382683 0.000000
v -0.980785 -0.195090 0.000000
v -1.000000 -0.000000 0.000000
v -0.980785 0.195090 0.000000
v -0.923880 0.382683 0.000000
v -0.831470 0.555570 0.000000
v -0.707107 0.707107 0.000000
v -0.555570 0.831470 0.000000
v -0.382683 0.923880 -0.000000
v -0.195090 0.980785 -0.000000
vn -0.0000 -0.0000 -1.0000
vt 0.511026 0.501149
vt 0.412834 0.497399
vt 0.317992 0.484144
vt 0.230145 0.461891
vt 0.152668 0.431498
vt 0.088539 0.394130
vt 0.040222 0.351225
vt 0.009574 0.304432
vt -0.002227 0.255548
vt 0.005272 0.206452
vt 0.031783 0.159031
vt 0.076288 0.115108
vt 0.137076 0.076369
vt 0.211810 0.044305
vt 0.297620 0.020146
vt 0.391207 0.004822
vt 0.488975 -0.001078
vt 0.587166 0.002671
vt 0.682008 0.015927
vt 0.769855 0.038179
vt 0.847332 0.068573
vt 0.911461 0.105940
vt 0.959778 0.148845
vt 0.990426 0.195639
vt 1.002227 0.244523
vt 0.994728 0.293618
vt 0.968217 0.341039
vt 0.923712 0.384963
vt 0.862925 0.423701
vt 0.788190 0.455766
vt 0.702380 0.479924
vt 0.608793 0.495248
s 0
usemtl Material
f 17/17/1 25/25/1 1/1/1
f 1/1/1 2/2/1 3/3/1
f 3/3/1 4/4/1 5/5/1
f 5/5/1 6/6/1 7/7/1
f 7/7/1 8/8/1 9/9/1
f 9/9/1 10/10/1 11/11/1
f 11/11/1 12/12/1 13/13/1
f 13/13/1 14/14/1 15/15/1
f 15/15/1 16/16/1 17/17/1
f 17/17/1 18/18/1 19/19/1
f 19/19/1 20/20/1 21/21/1
f 21/21/1 22/22/1 23/23/1
f 23/23/1 24/24/1 25/25/1
f 25/25/1 26/26/1 27/27/1
f 27/27/1 28/28/1 29/29/1
f 29/29/1 30/30/1 31/31/1
f 31/31/1 32/32/1 1/1/1
f 1/1/1 3/3/1 5/5/1
f 5/5/1 7/7/1 9/9/1
f 9/9/1 11/11/1 13/13/1
f 13/13/1 15/15/1 17/17/1
f 17/17/1 19/19/1 21/21/1
f 21/21/1 23/23/1 25/25/1
f 25/25/1 27/27/1 29/29/1
f 29/29/1 31/31/1 1/1/1
f 1/1/1 5/5/1 9/9/1
f 9/9/1 13/13/1 17/17/1
f 17/17/1 21/21/1 25/25/1
f 25/25/1 29/29/1 1/1/1
f 1/1/1 9/9/1 17/17/1
