# Blender 3.5.0
# www.blender.org
mtllib ClearGage.mtl
o 円
v 0.000000 1.000000 -0.000000
v 0.195090 0.980785 -0.000000
v 0.382683 0.923880 -0.000000
v 0.555570 0.831470 -0.000000
v 0.707107 0.707107 -0.000000
v 0.831470 0.555570 -0.000000
v 0.923880 0.382683 -0.000000
v 0.980785 0.195090 -0.000000
v 1.000000 0.000000 0.000000
v 0.980785 -0.195090 0.000000
v 0.923880 -0.382683 0.000000
v 0.831470 -0.555570 0.000000
v 0.707107 -0.707107 0.000000
v 0.555570 -0.831470 0.000000
v 0.382683 -0.923880 0.000000
v 0.195090 -0.980785 0.000000
v 0.000000 -1.000000 0.000000
v -0.195090 -0.980785 0.000000
v -0.382683 -0.923880 0.000000
v -0.555570 -0.831470 0.000000
v -0.707107 -0.707107 0.000000
v -0.831470 -0.555570 0.000000
v -0.923880 -0.382683 0.000000
v -0.980785 -0.195090 0.000000
v -1.000000 0.000000 0.000000
v -0.980785 0.195090 -0.000000
v -0.923880 0.382683 -0.000000
v -0.831470 0.555570 -0.000000
v -0.707107 0.707107 -0.000000
v -0.555570 0.831470 -0.000000
v -0.382683 0.923880 -0.000000
v -0.195090 0.980785 -0.000000
vn -0.0000 -0.0000 -1.0000
vt 0.494519 0.501195
vt 0.396627 0.495834
vt 0.302708 0.481028
vt 0.216370 0.457344
vt 0.140932 0.425694
vt 0.079292 0.387293
vt 0.033821 0.343618
vt 0.006264 0.296346
vt -0.002318 0.247295
vt 0.008403 0.198349
vt 0.038015 0.151389
vt 0.085382 0.108220
vt 0.148683 0.070501
vt 0.225484 0.039682
vt 0.312835 0.016946
vt 0.407378 0.003168
vt 0.505481 -0.001124
vt 0.603373 0.004237
vt 0.697292 0.019043
vt 0.783630 0.042726
vt 0.859068 0.074377
vt 0.920707 0.112777
vt 0.966179 0.156453
vt 0.993736 0.203724
vt 1.002318 0.252776
vt 0.991597 0.301722
vt 0.961985 0.348681
vt 0.914618 0.391850
vt 0.851317 0.429569
vt 0.774516 0.460389
vt 0.687165 0.483125
vt 0.592622 0.496903
s 0
usemtl Material.001
f 17/17/1 25/25/1 1/1/1
f 1/1/1 2/2/1 3/3/1
f 3/3/1 4/4/1 5/5/1
f 5/5/1 6/6/1 7/7/1
f 7/7/1 8/8/1 9/9/1
f 9/9/1 10/10/1 11/11/1
f 11/11/1 12/12/1 13/13/1
f 13/13/1 14/14/1 15/15/1
f 15/15/1 16/16/1 17/17/1
f 17/17/1 18/18/1 19/19/1
f 19/19/1 20/20/1 21/21/1
f 21/21/1 22/22/1 23/23/1
f 23/23/1 24/24/1 25/25/1
f 25/25/1 26/26/1 27/27/1
f 27/27/1 28/28/1 29/29/1
f 29/29/1 30/30/1 31/31/1
f 31/31/1 32/32/1 1/1/1
f 1/1/1 3/3/1 5/5/1
f 5/5/1 7/7/1 9/9/1
f 9/9/1 11/11/1 13/13/1
f 13/13/1 15/15/1 17/17/1
f 17/17/1 19/19/1 21/21/1
f 21/21/1 23/23/1 25/25/1
f 25/25/1 27/27/1 29/29/1
f 29/29/1 31/31/1 1/1/1
f 1/1/1 5/5/1 9/9/1
f 9/9/1 13/13/1 17/17/1
f 17/17/1 21/21/1 25/25/1
f 25/25/1 29/29/1 1/1/1
f 1/1/1 9/9/1 17/17/1
