# Blender 3.5.0
# www.blender.org
mtllib ContainPlane.mtl
o 平面
v -1.000000 1.000000 0.000000
v 1.000000 1.000000 0.000000
v -1.000000 -1.000000 -0.000000
v 1.000000 -1.000000 -0.000000
v 3.000000 1.000000 0.000000
v 3.000000 -1.000000 -0.000000
v 5.000000 1.000000 0.000000
v 5.000000 -1.000000 -0.000000
v 7.000000 1.000000 0.000000
v 7.000000 -1.000000 -0.000000
vn -0.0000 -0.0000 -1.0000
vt 0.999987 0.624987
vt 0.750013 0.624987
vt 0.999988 0.375012
vt 0.750013 0.375013
vt 0.500038 0.624988
vt 0.500038 0.375013
vt 0.250063 0.624988
vt 0.250063 0.375013
vt 0.000087 0.624988
vt 0.000087 0.375013
s 0
usemtl Material
f 2/2/1 3/3/1 1/1/1
f 2/2/1 6/6/1 4/4/1
f 5/5/1 8/8/1 6/6/1
f 7/7/1 10/10/1 8/8/1
f 2/2/1 4/4/1 3/3/1
f 2/2/1 5/5/1 6/6/1
f 5/5/1 7/7/1 8/8/1
f 7/7/1 9/9/1 10/10/1
