# Blender 3.5.0
# www.blender.org
mtllib Foot_L.mtl
o C_Foot_L
v -0.001166 0.000000 0.200000
v -0.001166 0.000000 -0.200000
v -0.260071 -0.272890 -0.200000
v -0.260071 0.000000 -0.200000
v -0.260071 -0.272890 0.200000
v -0.260071 0.000000 0.200000
v -0.001166 -0.205238 0.200000
v -0.043401 -0.247473 0.200000
v -0.043401 -0.247473 -0.200000
v -0.001166 -0.205238 -0.200000
v -0.476740 -0.242935 0.200000
v -0.518975 -0.209972 0.200000
v -0.518975 -0.062918 0.200000
v -0.476740 -0.029955 0.200000
v -0.518975 -0.209972 -0.200000
v -0.476740 -0.242935 -0.200000
v -0.476740 -0.029955 -0.200000
v -0.518975 -0.062918 -0.200000
vn 0.3349 -0.6914 0.6402
vn 0.5774 0.5774 0.5774
vn -0.0496 0.7202 0.6920
vn -0.0076 -0.7335 0.6797
vn -0.2949 0.6975 0.6531
vn -0.7048 -0.3440 0.6204
vn -0.0076 -0.7335 -0.6797
vn 0.5774 0.5774 -0.5774
vn 0.7173 -0.2971 -0.6303
vn -0.7048 0.3440 -0.6204
vn -0.7048 -0.3440 -0.6204
vn -0.0496 0.7202 -0.6920
vn -0.2949 -0.6975 -0.6531
vn 0.7173 -0.2971 0.6303
vn -0.2949 0.6975 -0.6531
vn 0.3349 -0.6914 -0.6402
vn -0.2949 -0.6975 0.6531
vn -0.7048 0.3440 0.6204
vt 0.625000 1.000000
vt 0.875000 0.750000
vt 0.625000 0.000000
vt 0.875000 0.500000
vt 0.625000 0.250000
vt 0.375000 0.375000
vt 0.250000 0.500000
vt 0.625000 0.375000
vt 0.750000 0.500000
vt 0.375000 0.875000
vt 0.250000 0.750000
vt 0.625000 0.875000
vt 0.750000 0.750000
vt 0.413693 0.000000
vt 0.413693 1.000000
vt 0.125000 0.750000
vt 0.375000 0.979609
vt 0.145391 0.750000
vt 0.145391 0.500000
vt 0.375000 0.270391
vt 0.413693 0.250000
vt 0.125000 0.500000
vt 0.375000 0.770391
vt 0.354609 0.750000
vt 0.413693 0.750000
vt 0.586307 0.750000
vt 0.625000 0.770391
vt 0.645391 0.750000
vt 0.413693 0.500000
vt 0.375000 0.479609
vt 0.354609 0.500000
vt 0.645391 0.500000
vt 0.625000 0.479609
vt 0.586307 0.500000
s 1
usemtl Arm
f 8/17/1 1/1/2 6/12/3
f 5/10/4 14/27/5 12/25/6
f 3/6/7 2/5/8 10/21/9
f 12/25/6 18/34/10 15/29/11
f 6/13/3 2/4/8 4/9/12
f 16/30/13 18/34/10 4/8/12
f 10/21/9 1/3/2 7/14/14
f 14/28/5 4/9/12 17/32/15
f 5/11/4 16/31/13 3/7/7
f 10/22/9 8/18/1 9/19/16
f 12/25/6 16/31/13 11/24/17
f 18/34/10 14/28/5 17/32/15
f 8/18/1 3/7/7 9/19/16
f 6/12/3 5/10/4 8/17/1
f 8/17/1 7/15/14 1/1/2
f 12/25/6 11/23/17 5/10/4
f 5/10/4 6/12/3 14/27/5
f 14/27/5 13/26/18 12/25/6
f 10/21/9 9/20/16 3/6/7
f 3/6/7 4/8/12 2/5/8
f 12/25/6 13/26/18 18/34/10
f 6/13/3 1/2/2 2/4/8
f 4/8/12 3/6/7 16/30/13
f 16/30/13 15/29/11 18/34/10
f 18/34/10 17/33/15 4/8/12
f 10/21/9 2/5/8 1/3/2
f 14/28/5 6/13/3 4/9/12
f 5/11/4 11/24/17 16/31/13
f 10/22/9 7/16/14 8/18/1
f 12/25/6 15/29/11 16/31/13
f 18/34/10 13/26/18 14/28/5
f 8/18/1 5/11/4 3/7/7
