{
	"asset":{
		"generator":"Khronos glTF Blender I/O v3.5.30",
		"version":"2.0"
	},
	"scene":0,
	"scenes":[
		{
			"name":"Scene",
			"nodes":[
				4
			]
		}
	],
	"nodes":[
		{
			"name":"Handle",
			"rotation":[
				7.105429051666896e-15,
				1.072890009088573e-21,
				-1,
				0
			],
			"translation":[
				-8.304771093037289e-09,
				0.3535679876804352,
				0
			]
		},
		{
			"name":"Sheath",
			"translation":[
				0,
				-9.663403034210205e-06,
				0
			]
		},
		{
			"children":[
				0,
				1
			],
			"name":"Root"
		},
		{
			"mesh":0,
			"name":"MasterSword_Sheath",
			"skin":0
		},
		{
			"children":[
				3,
				2
			],
			"name":"MasterSword"
		}
	],
	"materials":[
		{
			"doubleSided":true,
			"name":"SheethMaterial",
			"pbrMetallicRoughness":{
				"baseColorTexture":{
					"index":0
				},
				"metallicFactor":0,
				"roughnessFactor":0.5
			}
		}
	],
	"meshes":[
		{
			"name":"Mesh.001",
			"primitives":[
				{
					"attributes":{
						"POSITION":0,
						"TEXCOORD_0":1,
						"NORMAL":2,
						"JOINTS_0":3,
						"WEIGHTS_0":4
					},
					"indices":5,
					"material":0
				}
			]
		}
	],
	"textures":[
		{
			"sampler":0,
			"source":0
		}
	],
	"images":[
		{
			"mimeType":"image/png",
			"name":"SheathTex",
			"uri":"SheathTex.png"
		}
	],
	"skins":[
		{
			"inverseBindMatrices":6,
			"joints":[
				2,
				0,
				1
			],
			"name":"MasterSword"
		}
	],
	"accessors":[
		{
			"bufferView":0,
			"componentType":5126,
			"count":326,
			"max":[
				0.0859985500574112,
				0.14765425026416779,
				0.02255941368639469
			],
			"min":[
				-0.08455406129360199,
				-0.5968210697174072,
				-0.02233172208070755
			],
			"type":"VEC3"
		},
		{
			"bufferView":1,
			"componentType":5126,
			"count":326,
			"type":"VEC2"
		},
		{
			"bufferView":2,
			"componentType":5126,
			"count":326,
			"type":"VEC3"
		},
		{
			"bufferView":3,
			"componentType":5121,
			"count":326,
			"type":"VEC4"
		},
		{
			"bufferView":4,
			"componentType":5126,
			"count":326,
			"type":"VEC4"
		},
		{
			"bufferView":5,
			"componentType":5123,
			"count":480,
			"type":"SCALAR"
		},
		{
			"bufferView":6,
			"componentType":5126,
			"count":3,
			"type":"MAT4"
		}
	],
	"bufferViews":[
		{
			"buffer":0,
			"byteLength":3912,
			"byteOffset":0,
			"target":34962
		},
		{
			"buffer":0,
			"byteLength":2608,
			"byteOffset":3912,
			"target":34962
		},
		{
			"buffer":0,
			"byteLength":3912,
			"byteOffset":6520,
			"target":34962
		},
		{
			"buffer":0,
			"byteLength":1304,
			"byteOffset":10432,
			"target":34962
		},
		{
			"buffer":0,
			"byteLength":5216,
			"byteOffset":11736,
			"target":34962
		},
		{
			"buffer":0,
			"byteLength":960,
			"byteOffset":16952,
			"target":34963
		},
		{
			"buffer":0,
			"byteLength":192,
			"byteOffset":17912
		}
	],
	"samplers":[
		{
			"magFilter":9729,
			"minFilter":9987
		}
	],
	"buffers":[
		{
			"byteLength":18104,
			"uri":"Sheath.bin"
		}
	]
}
