{
	"asset":{
		"generator":"Khronos glTF Blender I/O v3.5.30",
		"version":"2.0"
	},
	"scene":0,
	"scenes":[
		{
			"name":"Scene",
			"nodes":[
				2
			]
		}
	],
	"nodes":[
		{
			"name":"Handle",
			"rotation":[
				7.1054265105680546e-15,
				5.699934576793627e-15,
				-1,
				7.549790836947068e-08
			],
			"translation":[
				-8.304771093037289e-09,
				-1.7017126083374023e-05,
				0
			]
		},
		{
			"mesh":0,
			"name":"MasterSword_Blade",
			"skin":0
		},
		{
			"children":[
				1,
				0
			],
			"name":"MasterSword"
		}
	],
	"materials":[
		{
			"doubleSided":true,
			"name":"SwordMaterial",
			"pbrMetallicRoughness":{
				"baseColorTexture":{
					"index":0
				},
				"metallicFactor":0,
				"roughnessFactor":0.5
			}
		}
	],
	"meshes":[
		{
			"name":"Mesh",
			"primitives":[
				{
					"attributes":{
						"POSITION":0,
						"TEXCOORD_0":1,
						"NORMAL":2,
						"JOINTS_0":3,
						"WEIGHTS_0":4
					},
					"indices":5,
					"material":0
				}
			]
		}
	],
	"textures":[
		{
			"sampler":0,
			"source":0
		}
	],
	"images":[
		{
			"mimeType":"image/png",
			"name":"SwordTex",
			"uri":"SwordTex.png"
		}
	],
	"skins":[
		{
			"inverseBindMatrices":6,
			"joints":[
				0
			],
			"name":"MasterSword"
		}
	],
	"accessors":[
		{
			"bufferView":0,
			"componentType":5126,
			"count":742,
			"max":[
				0.1459803283214569,
				0.1704680323600769,
				0.025895072147250175
			],
			"min":[
				-0.14453569054603577,
				-0.9070135951042175,
				-0.025667527690529823
			],
			"type":"VEC3"
		},
		{
			"bufferView":1,
			"componentType":5126,
			"count":742,
			"type":"VEC2"
		},
		{
			"bufferView":2,
			"componentType":5126,
			"count":742,
			"type":"VEC3"
		},
		{
			"bufferView":3,
			"componentType":5121,
			"count":742,
			"type":"VEC4"
		},
		{
			"bufferView":4,
			"componentType":5126,
			"count":742,
			"type":"VEC4"
		},
		{
			"bufferView":5,
			"componentType":5123,
			"count":1260,
			"type":"SCALAR"
		},
		{
			"bufferView":6,
			"componentType":5126,
			"count":1,
			"type":"MAT4"
		}
	],
	"bufferViews":[
		{
			"buffer":0,
			"byteLength":8904,
			"byteOffset":0,
			"target":34962
		},
		{
			"buffer":0,
			"byteLength":5936,
			"byteOffset":8904,
			"target":34962
		},
		{
			"buffer":0,
			"byteLength":8904,
			"byteOffset":14840,
			"target":34962
		},
		{
			"buffer":0,
			"byteLength":2968,
			"byteOffset":23744,
			"target":34962
		},
		{
			"buffer":0,
			"byteLength":11872,
			"byteOffset":26712,
			"target":34962
		},
		{
			"buffer":0,
			"byteLength":2520,
			"byteOffset":38584,
			"target":34963
		},
		{
			"buffer":0,
			"byteLength":64,
			"byteOffset":41104
		}
	],
	"samplers":[
		{
			"magFilter":9729,
			"minFilter":9987
		}
	],
	"buffers":[
		{
			"byteLength":41168,
			"uri":"Sword.bin"
		}
	]
}
