{
	"asset":{
		"generator":"Khronos glTF Blender I/O v3.5.30",
		"version":"2.0"
	},
	"scene":0,
	"scenes":[
		{
			"name":"Scene",
			"nodes":[
				3
			]
		}
	],
	"nodes":[
		{
			"name":"Handle",
			"rotation":[
				7.1054265105680546e-15,
				5.699934576793627e-15,
				-1,
				7.549790836947068e-08
			],
			"translation":[
				-8.304771093037289e-09,
				-1.7017126083374023e-05,
				0
			]
		},
		{
			"mesh":0,
			"name":"MasterSword_Blade",
			"skin":0
		},
		{
			"mesh":1,
			"name":"MasterSword_Blade.001",
			"skin":0
		},
		{
			"children":[
				1,
				2,
				0
			],
			"name":"MasterSword"
		}
	],
	"materials":[
		{
			"doubleSided":true,
			"name":"GripMaterial",
			"pbrMetallicRoughness":{
				"baseColorTexture":{
					"index":0
				},
				"metallicFactor":0,
				"roughnessFactor":0.5
			}
		},
		{
			"doubleSided":true,
			"name":"BladeMaterial",
			"pbrMetallicRoughness":{
				"baseColorTexture":{
					"index":1
				},
				"metallicFactor":0,
				"roughnessFactor":0.5
			}
		}
	],
	"meshes":[
		{
			"name":"Mesh",
			"primitives":[
				{
					"attributes":{
						"POSITION":0,
						"TEXCOORD_0":1,
						"NORMAL":2,
						"JOINTS_0":3,
						"WEIGHTS_0":4
					},
					"indices":5,
					"material":0
				}
			]
		},
		{
			"name":"Mesh.001",
			"primitives":[
				{
					"attributes":{
						"POSITION":7,
						"TEXCOORD_0":8,
						"NORMAL":9,
						"JOINTS_0":10,
						"WEIGHTS_0":11
					},
					"indices":12,
					"material":1
				}
			]
		}
	],
	"textures":[
		{
			"sampler":0,
			"source":0
		},
		{
			"sampler":0,
			"source":0
		}
	],
	"images":[
		{
			"mimeType":"image/png",
			"name":"SwordTex",
			"uri":"SwordTex.png"
		}
	],
	"skins":[
		{
			"inverseBindMatrices":6,
			"joints":[
				0
			],
			"name":"MasterSword"
		}
	],
	"accessors":[
		{
			"bufferView":0,
			"componentType":5126,
			"count":550,
			"max":[
				0.1459803283214569,
				0.1704680323600769,
				0.025895072147250175
			],
			"min":[
				-0.14453569054603577,
				-0.27425023913383484,
				-0.025667527690529823
			],
			"type":"VEC3"
		},
		{
			"bufferView":1,
			"componentType":5126,
			"count":550,
			"type":"VEC2"
		},
		{
			"bufferView":2,
			"componentType":5126,
			"count":550,
			"type":"VEC3"
		},
		{
			"bufferView":3,
			"componentType":5121,
			"count":550,
			"type":"VEC4"
		},
		{
			"bufferView":4,
			"componentType":5126,
			"count":550,
			"type":"VEC4"
		},
		{
			"bufferView":5,
			"componentType":5123,
			"count":924,
			"type":"SCALAR"
		},
		{
			"bufferView":6,
			"componentType":5126,
			"count":1,
			"type":"MAT4"
		},
		{
			"bufferView":7,
			"componentType":5126,
			"count":192,
			"max":[
				0.0797361359000206,
				-0.20400257408618927,
				0.009515546262264252
			],
			"min":[
				-0.07829165458679199,
				-0.9070135951042175,
				-0.009287937544286251
			],
			"type":"VEC3"
		},
		{
			"bufferView":8,
			"componentType":5126,
			"count":192,
			"type":"VEC2"
		},
		{
			"bufferView":9,
			"componentType":5126,
			"count":192,
			"type":"VEC3"
		},
		{
			"bufferView":10,
			"componentType":5121,
			"count":192,
			"type":"VEC4"
		},
		{
			"bufferView":11,
			"componentType":5126,
			"count":192,
			"type":"VEC4"
		},
		{
			"bufferView":12,
			"componentType":5123,
			"count":336,
			"type":"SCALAR"
		}
	],
	"bufferViews":[
		{
			"buffer":0,
			"byteLength":6600,
			"byteOffset":0,
			"target":34962
		},
		{
			"buffer":0,
			"byteLength":4400,
			"byteOffset":6600,
			"target":34962
		},
		{
			"buffer":0,
			"byteLength":6600,
			"byteOffset":11000,
			"target":34962
		},
		{
			"buffer":0,
			"byteLength":2200,
			"byteOffset":17600,
			"target":34962
		},
		{
			"buffer":0,
			"byteLength":8800,
			"byteOffset":19800,
			"target":34962
		},
		{
			"buffer":0,
			"byteLength":1848,
			"byteOffset":28600,
			"target":34963
		},
		{
			"buffer":0,
			"byteLength":64,
			"byteOffset":30448
		},
		{
			"buffer":0,
			"byteLength":2304,
			"byteOffset":30512,
			"target":34962
		},
		{
			"buffer":0,
			"byteLength":1536,
			"byteOffset":32816,
			"target":34962
		},
		{
			"buffer":0,
			"byteLength":2304,
			"byteOffset":34352,
			"target":34962
		},
		{
			"buffer":0,
			"byteLength":768,
			"byteOffset":36656,
			"target":34962
		},
		{
			"buffer":0,
			"byteLength":3072,
			"byteOffset":37424,
			"target":34962
		},
		{
			"buffer":0,
			"byteLength":672,
			"byteOffset":40496,
			"target":34963
		}
	],
	"samplers":[
		{
			"magFilter":9729,
			"minFilter":9987
		}
	],
	"buffers":[
		{
			"byteLength":41168,
			"uri":"Sword.bin"
		}
	]
}
