{
	"asset":{
		"generator":"Khronos glTF Blender I/O v3.5.30",
		"version":"2.0"
	},
	"scene":0,
	"scenes":[
		{
			"name":"Scene",
			"nodes":[
				2
			]
		}
	],
	"nodes":[
		{
			"name":"Grip",
			"rotation":[
				0,
				1.1920926823449918e-07,
				0,
				1
			]
		},
		{
			"mesh":0,
			"name":"EnemySword.001",
			"skin":0
		},
		{
			"children":[
				1,
				0
			],
			"name":"EnemySword"
		}
	],
	"materials":[
		{
			"doubleSided":true,
			"name":"Material",
			"pbrMetallicRoughness":{
				"baseColorTexture":{
					"index":0
				},
				"metallicFactor":0,
				"roughnessFactor":0.5
			}
		}
	],
	"meshes":[
		{
			"name":"\u5186\u67f1",
			"primitives":[
				{
					"attributes":{
						"POSITION":0,
						"TEXCOORD_0":1,
						"NORMAL":2,
						"JOINTS_0":3,
						"WEIGHTS_0":4
					},
					"indices":5,
					"material":0
				}
			]
		}
	],
	"textures":[
		{
			"sampler":0,
			"source":0
		}
	],
	"images":[
		{
			"mimeType":"image/png",
			"name":"SwordTex",
			"uri":"SwordTex.png"
		}
	],
	"skins":[
		{
			"inverseBindMatrices":6,
			"joints":[
				0
			],
			"name":"EnemySword"
		}
	],
	"accessors":[
		{
			"bufferView":0,
			"componentType":5126,
			"count":396,
			"max":[
				0.3908877968788147,
				2.1749818325042725,
				0.08168468624353409
			],
			"min":[
				-0.3908877968788147,
				-0.37112757563591003,
				-0.0816846713423729
			],
			"type":"VEC3"
		},
		{
			"bufferView":1,
			"componentType":5126,
			"count":396,
			"type":"VEC2"
		},
		{
			"bufferView":2,
			"componentType":5126,
			"count":396,
			"type":"VEC3"
		},
		{
			"bufferView":3,
			"componentType":5121,
			"count":396,
			"type":"VEC4"
		},
		{
			"bufferView":4,
			"componentType":5126,
			"count":396,
			"type":"VEC4"
		},
		{
			"bufferView":5,
			"componentType":5123,
			"count":768,
			"type":"SCALAR"
		},
		{
			"bufferView":6,
			"componentType":5126,
			"count":1,
			"type":"MAT4"
		}
	],
	"bufferViews":[
		{
			"buffer":0,
			"byteLength":4752,
			"byteOffset":0,
			"target":34962
		},
		{
			"buffer":0,
			"byteLength":3168,
			"byteOffset":4752,
			"target":34962
		},
		{
			"buffer":0,
			"byteLength":4752,
			"byteOffset":7920,
			"target":34962
		},
		{
			"buffer":0,
			"byteLength":1584,
			"byteOffset":12672,
			"target":34962
		},
		{
			"buffer":0,
			"byteLength":6336,
			"byteOffset":14256,
			"target":34962
		},
		{
			"buffer":0,
			"byteLength":1536,
			"byteOffset":20592,
			"target":34963
		},
		{
			"buffer":0,
			"byteLength":64,
			"byteOffset":22128
		}
	],
	"samplers":[
		{
			"magFilter":9729,
			"minFilter":9987
		}
	],
	"buffers":[
		{
			"byteLength":22192,
			"uri":"EnemySword.bin"
		}
	]
}
